<svg width="128" height="128" viewBox="0 0 128 128" fill="none" xmlns="http://www.w3.org/2000/svg">
<path d="M60.5 67.5H67.5V60.5H60.5V67.5Z" fill="url(#paint0_linear_206_610)" stroke="url(#paint1_linear_206_610)"/>
<path d="M57.88 77.41C60.4137 77.4259 62.9254 76.9386 65.2693 75.9764C67.6132 75.0141 69.7428 73.596 71.5344 71.8044C73.326 70.0127 74.7441 67.8832 75.7064 65.5393C76.6686 63.1953 77.1559 60.6837 77.14 58.15V57.265C78.4534 56.3027 79.5902 55.1202 80.5 53.77C79.2633 54.3109 77.9547 54.6696 76.615 54.835C78.0354 53.9886 79.1011 52.6565 79.615 51.085C78.2913 51.8791 76.8397 52.4374 75.325 52.735C74.3049 51.648 72.955 50.9276 71.4842 50.6851C70.0134 50.4426 68.5037 50.6915 67.1886 51.3935C65.8736 52.0954 64.8265 53.2111 64.2094 54.5681C63.5923 55.925 63.4397 57.4475 63.775 58.9C61.084 58.7679 58.4511 58.0705 56.0475 56.8532C53.644 55.636 51.5238 53.9261 49.825 51.835C48.9684 53.3217 48.7087 55.0785 49.0986 56.7495C49.4885 58.4205 50.4988 59.8809 51.925 60.835C50.8729 60.7944 49.8452 60.5066 48.925 59.995V60.07C48.9157 61.6237 49.4391 63.1338 50.4081 64.3484C51.377 65.563 52.733 66.4089 54.25 66.745C53.2715 67.0082 52.2464 67.0492 51.25 66.865C51.6892 68.1901 52.5275 69.3468 53.6501 70.1767C54.7726 71.0065 56.1244 71.4687 57.52 71.5C55.1338 73.4208 52.1681 74.478 49.105 74.5C48.5679 74.4844 48.0321 74.4394 47.5 74.365C50.6004 76.3403 54.2038 77.3818 57.88 77.365" fill="white"/>
<defs>
<linearGradient id="paint0_linear_206_610" x1="68" y1="68" x2="60.7727" y2="59.3541" gradientUnits="userSpaceOnUse">
<stop stop-color="#FF7A00"/>
<stop offset="0.275" stop-color="#FF7A00" stop-opacity="0"/>
<stop offset="0.485714" stop-color="#FF7A00" stop-opacity="0"/>
<stop offset="0.860714" stop-color="#FF7A00" stop-opacity="0"/>
<stop offset="1" stop-color="#FF7A00"/>
</linearGradient>
<linearGradient id="paint1_linear_206_610" x1="68" y1="68" x2="60.7727" y2="59.3541" gradientUnits="userSpaceOnUse">
<stop stop-color="#FF7A00"/>
<stop offset="0.485714" stop-color="#FF7A00" stop-opacity="0"/>
<stop offset="1" stop-color="#FF7A00"/>
</linearGradient>
</defs>
</svg>
