<svg width="26" height="52" viewBox="0 0 26 52" fill="none" xmlns="http://www.w3.org/2000/svg">
<g opacity="0.4">
<path opacity="0.3" d="M13 22L6.99992 22L13 13.9999L19 22L13 22Z" fill="#FF7A00"/>
<path d="M13 22.1557L19.0001 22.1558L13 38.0004L7 22.1558L13 22.1557Z" fill="#FF7A00"/>
</g>
<g opacity="0.4">
<path opacity="0.3" d="M13 22L6.99993 22L13 14L19 22L13 22Z" fill="#FF7A00"/>
<path d="M13 22.1557L19.0001 22.1558L13 38.0004L7 22.1558L13 22.1557Z" fill="#FF7A00"/>
</g>
<path opacity="0.3" d="M13 22L7 22L13 14L19 22L13 22Z" fill="#FF7A00"/>
<path d="M13 22.1557L19 22.1558L13 38.0003L7 22.1558L13 22.1557Z" fill="#FF7A00"/>
</svg>
