<svg width="128" height="128" viewBox="0 0 128 128" fill="none" xmlns="http://www.w3.org/2000/svg">
<path d="M60.5 67.5H67.5V60.5H60.5V67.5Z" fill="url(#paint0_linear_448_1483)" stroke="url(#paint1_linear_448_1483)"/>
<path d="M78.54 50.6601C75.88 49.4201 73 48.5201 70 48.0001C69.9737 47.9993 69.9475 48.0042 69.9233 48.0146C69.8991 48.0249 69.8775 48.0405 69.86 48.0601C69.5 48.7201 69.08 49.5801 68.8 50.2401C65.618 49.7601 62.382 49.7601 59.2 50.2401C58.92 49.5601 58.5 48.7201 58.12 48.0601C58.1 48.0201 58.04 48.0001 57.98 48.0001C54.98 48.5201 52.12 49.4201 49.44 50.6601C49.42 50.6601 49.4 50.6801 49.38 50.7001C43.94 58.8401 42.44 66.7601 43.18 74.6001C43.18 74.6401 43.2 74.6801 43.24 74.7001C46.84 77.3401 50.3 78.9401 53.72 80.0001C53.78 80.0201 53.84 80.0001 53.86 79.9601C54.66 78.8601 55.38 77.7001 56 76.4801C56.04 76.4001 56 76.3201 55.92 76.3001C54.78 75.8601 53.7 75.3401 52.64 74.7401C52.56 74.7001 52.56 74.5801 52.62 74.5201C52.84 74.3601 53.06 74.1801 53.28 74.0201C53.32 73.9801 53.38 73.9801 53.42 74.0001C60.3 77.1401 67.72 77.1401 74.52 74.0001C74.56 73.9801 74.62 73.9801 74.66 74.0201C74.88 74.2001 75.1 74.3601 75.32 74.5401C75.4 74.6001 75.4 74.7201 75.3 74.7601C74.26 75.3801 73.16 75.8801 72.02 76.3201C71.94 76.3401 71.92 76.4401 71.94 76.5001C72.58 77.7201 73.3 78.8801 74.08 79.9801C74.14 80.0001 74.2 80.0201 74.26 80.0001C77.7 78.9401 81.16 77.3401 84.76 74.7001C84.8 74.6801 84.82 74.6401 84.82 74.6001C85.7 65.5401 83.36 57.6801 78.62 50.7001C78.6 50.6801 78.58 50.6601 78.54 50.6601V50.6601ZM57.04 69.8201C54.98 69.8201 53.26 67.9201 53.26 65.5801C53.26 63.2401 54.94 61.3401 57.04 61.3401C59.16 61.3401 60.84 63.2601 60.82 65.5801C60.82 67.9201 59.14 69.8201 57.04 69.8201ZM70.98 69.8201C68.92 69.8201 67.2 67.9201 67.2 65.5801C67.2 63.2401 68.88 61.3401 70.98 61.3401C73.1 61.3401 74.78 63.2601 74.76 65.5801C74.76 67.9201 73.1 69.8201 70.98 69.8201Z" fill="white"/>
<defs>
<linearGradient id="paint0_linear_448_1483" x1="68" y1="68" x2="60.7727" y2="59.3541" gradientUnits="userSpaceOnUse">
<stop stop-color="#FF7A00"/>
<stop offset="0.275" stop-color="#FF7A00" stop-opacity="0"/>
<stop offset="0.485714" stop-color="#FF7A00" stop-opacity="0"/>
<stop offset="0.860714" stop-color="#FF7A00" stop-opacity="0"/>
<stop offset="1" stop-color="#FF7A00"/>
</linearGradient>
<linearGradient id="paint1_linear_448_1483" x1="68" y1="68" x2="60.7727" y2="59.3541" gradientUnits="userSpaceOnUse">
<stop stop-color="#FF7A00"/>
<stop offset="0.485714" stop-color="#FF7A00" stop-opacity="0"/>
<stop offset="1" stop-color="#FF7A00"/>
</linearGradient>
</defs>
</svg>
