<svg width="128" height="128" viewBox="0 0 128 128" fill="none" xmlns="http://www.w3.org/2000/svg">
<path d="M60.5 67.5H67.5V60.5H60.5V67.5Z" fill="url(#paint0_linear_808_3052)" stroke="url(#paint1_linear_808_3052)"/>
<path d="M78.5402 50.6601C75.8802 49.4201 73.0002 48.5201 70.0002 48.0001C69.9739 47.9993 69.9478 48.0042 69.9236 48.0146C69.8994 48.0249 69.8778 48.0405 69.8602 48.0601C69.5002 48.7201 69.0802 49.5801 68.8002 50.2401C65.6182 49.7601 62.3822 49.7601 59.2002 50.2401C58.9202 49.5601 58.5002 48.7201 58.1202 48.0601C58.1002 48.0201 58.0402 48.0001 57.9802 48.0001C54.9802 48.5201 52.1202 49.4201 49.4402 50.6601C49.4202 50.6601 49.4002 50.6801 49.3802 50.7001C43.9402 58.8401 42.4402 66.7601 43.1802 74.6001C43.1802 74.6401 43.2002 74.6801 43.2402 74.7001C46.8402 77.3401 50.3002 78.9401 53.7202 80.0001C53.7802 80.0201 53.8402 80.0001 53.8602 79.9601C54.6602 78.8601 55.3802 77.7001 56.0002 76.4801C56.0402 76.4001 56.0002 76.3201 55.9202 76.3001C54.7802 75.8601 53.7002 75.3401 52.6402 74.7401C52.5602 74.7001 52.5602 74.5801 52.6202 74.5201C52.8402 74.3601 53.0602 74.1801 53.2802 74.0201C53.3202 73.9801 53.3802 73.9801 53.4202 74.0001C60.3002 77.1401 67.7202 77.1401 74.5202 74.0001C74.5602 73.9801 74.6202 73.9801 74.6602 74.0201C74.8802 74.2001 75.1002 74.3601 75.3202 74.5401C75.4002 74.6001 75.4002 74.7201 75.3002 74.7601C74.2602 75.3801 73.1602 75.8801 72.0202 76.3201C71.9402 76.3401 71.9202 76.4401 71.9402 76.5001C72.5802 77.7201 73.3002 78.8801 74.0802 79.9801C74.1402 80.0001 74.2002 80.0201 74.2602 80.0001C77.7002 78.9401 81.1602 77.3401 84.7602 74.7001C84.8002 74.6801 84.8202 74.6401 84.8202 74.6001C85.7002 65.5401 83.3602 57.6801 78.6202 50.7001C78.6002 50.6801 78.5802 50.6601 78.5402 50.6601V50.6601ZM57.0402 69.8201C54.9802 69.8201 53.2602 67.9201 53.2602 65.5801C53.2602 63.2401 54.9402 61.3401 57.0402 61.3401C59.1602 61.3401 60.8402 63.2601 60.8202 65.5801C60.8202 67.9201 59.1402 69.8201 57.0402 69.8201ZM70.9802 69.8201C68.9202 69.8201 67.2002 67.9201 67.2002 65.5801C67.2002 63.2401 68.8802 61.3401 70.9802 61.3401C73.1002 61.3401 74.7802 63.2601 74.7602 65.5801C74.7602 67.9201 73.1002 69.8201 70.9802 69.8201Z" fill="white"/>
<defs>
<linearGradient id="paint0_linear_808_3052" x1="68" y1="68" x2="60.7727" y2="59.3541" gradientUnits="userSpaceOnUse">
<stop stop-color="#FF7A00"/>
<stop offset="0.275" stop-color="#FF7A00" stop-opacity="0"/>
<stop offset="0.485714" stop-color="#FF7A00" stop-opacity="0"/>
<stop offset="0.860714" stop-color="#FF7A00" stop-opacity="0"/>
<stop offset="1" stop-color="#FF7A00"/>
</linearGradient>
<linearGradient id="paint1_linear_808_3052" x1="68" y1="68" x2="60.7727" y2="59.3541" gradientUnits="userSpaceOnUse">
<stop stop-color="#FF7A00"/>
<stop offset="0.485714" stop-color="#FF7A00" stop-opacity="0"/>
<stop offset="1" stop-color="#FF7A00"/>
</linearGradient>
</defs>
</svg>
