<svg width="116" height="116" viewBox="0 0 116 116" fill="none" xmlns="http://www.w3.org/2000/svg">
<path d="M113.873 58C115.048 58 116.004 58.9528 115.961 60.1266C115.497 72.7876 110.897 84.971 102.835 94.7948C94.3219 105.168 82.476 112.268 69.3152 114.886C56.1545 117.503 42.4931 115.477 30.659 109.151C18.8248 102.826 9.55007 92.5928 4.41499 80.1956C-0.72009 67.7985 -1.39776 54.0043 2.49746 41.1635C6.39267 28.3227 14.6198 17.2297 25.7769 9.77477C36.9341 2.31979 50.331 -1.03597 63.685 0.279285C76.3323 1.52493 88.1999 6.88727 97.4809 15.5116C98.3413 16.3112 98.3389 17.6611 97.5083 18.4917V18.4917C96.6777 19.3223 95.3338 19.3188 94.471 18.5217C85.8877 10.5919 74.9359 5.66163 63.2681 4.51245C50.8934 3.29366 38.479 6.40331 28.1401 13.3115C17.8012 20.2198 10.1775 30.4992 6.56795 42.3983C2.9584 54.2973 3.58637 67.0799 8.34485 78.5678C13.1033 90.0558 21.6979 99.5385 32.6641 105.4C43.6304 111.262 56.2898 113.139 68.4854 110.714C80.681 108.288 91.6581 101.708 99.5465 92.0963C106.984 83.0333 111.242 71.803 111.704 60.1265C111.751 58.9528 112.699 58 113.873 58V58Z" fill="url(#paint0_linear_864_1920)"/>
<defs>
<linearGradient id="paint0_linear_864_1920" x1="58" y1="0" x2="58" y2="116" gradientUnits="userSpaceOnUse">
<stop stop-color="#FC9D45"/>
<stop offset="1" stop-color="#AD3C0C"/>
</linearGradient>
</defs>
</svg>
