<svg width="51" height="49" viewBox="0 0 51 49" fill="none" xmlns="http://www.w3.org/2000/svg">
<path d="M49.7099 22.1043C49.9677 21.9849 50.1944 21.8073 50.3719 21.5854C50.5494 21.3635 50.6729 21.1034 50.7328 20.8256C50.9088 19.9698 50.7893 19.0795 50.3939 18.3003C49.8088 17.1053 48.8718 16.118 47.7088 15.4714C46.296 14.6745 44.6783 14.3152 43.061 14.4389C42.0358 14.5153 41.0297 14.7571 40.0818 15.1549C38.8877 15.6437 37.782 16.3251 36.8085 17.172C35.7648 18.077 34.8649 19.1354 34.1394 20.311C33.436 21.4525 32.8867 22.6822 32.5059 23.9679C32.1832 25.1156 31.9828 26.2942 31.9082 27.4841C31.889 28.0307 31.8858 28.5454 31.9082 29.0248C31.9306 29.5043 31.9689 29.955 32.0265 30.3578C32.084 30.7606 32.1543 31.1282 32.2214 31.4446C32.2848 31.7199 32.3648 31.991 32.4612 32.2566C32.6178 32.6977 32.7617 32.9374 32.8831 32.9374C33.0046 32.9374 33.1357 32.6977 33.3115 32.2821L33.9732 30.5816C34.1106 30.2363 34.2928 29.8687 34.4431 29.4787C34.5933 29.0888 34.8203 28.6956 35.0312 28.2896C35.4801 27.4558 35.9953 26.6594 36.572 25.9082C37.1546 25.179 37.816 24.5165 38.5443 23.9327C39.1824 23.4249 39.8842 23.0026 40.6316 22.6764C41.1998 22.4265 41.7985 22.2524 42.4121 22.1586C42.5294 22.1366 42.6479 22.1217 42.7669 22.1138C42.8727 22.0966 42.9795 22.087 43.0866 22.0851C43.1825 22.0851 43.272 22.0851 43.3551 22.0627C43.4382 22.0403 43.5117 22.0627 43.582 22.0627C44.1351 22.0243 44.5794 21.9924 45.0237 21.9732C45.5097 21.9427 45.9974 21.9545 46.4813 22.0084C47.533 22.1202 48.7317 22.5294 49.7099 22.1043Z" fill="white"/>
<path d="M33.1646 13.253C30.2014 19.9657 29.4054 29.402 29.3287 30.6455C29.3287 30.7254 29.2776 30.7829 29.2232 30.7829L26.3463 34.0562C26.2563 34.1588 26.1454 34.241 26.0211 34.2973C25.8968 34.3536 25.7619 34.3827 25.6255 34.3827C25.489 34.3827 25.3541 34.3536 25.2298 34.2973C25.1055 34.241 24.9947 34.1588 24.9047 34.0562L22.0277 30.7829C21.9734 30.7829 21.9287 30.7254 21.9223 30.6455C21.8264 29.402 21.1583 20.6978 18.0704 13.253C18.0448 13.1954 24.0224 2.51249 25.3682 0.278089C25.3923 0.227307 25.4303 0.184411 25.4778 0.154374C25.5254 0.124338 25.5804 0.108398 25.6367 0.108398C25.6929 0.108398 25.748 0.124338 25.7955 0.154374C25.843 0.184411 25.8811 0.227307 25.9052 0.278089C27.2094 2.51249 33.1902 13.1954 33.1646 13.253Z" fill="white"/>
<path d="M1.09996 22.1043C0.842112 21.9854 0.615631 21.8078 0.438586 21.5858C0.261542 21.3638 0.138833 21.1035 0.0802521 20.8257C-0.0970057 19.9702 0.0213278 19.0799 0.415892 18.3004C1.00135 17.1045 1.93969 16.1171 3.1042 15.4714C4.51584 14.6745 6.1325 14.3151 7.74882 14.4389C8.77505 14.5153 9.78218 14.7571 10.7312 15.155C11.9243 15.6438 13.029 16.3252 14.0013 17.172C15.045 18.077 15.945 19.1355 16.6704 20.311C17.3739 21.4526 17.9231 22.6822 18.3039 23.9679C18.6267 25.1156 18.827 26.2942 18.9016 27.4841C18.924 28.0307 18.9272 28.5454 18.9016 29.0249C18.8761 29.5044 18.8377 29.9551 18.7834 30.3578C18.729 30.7606 18.6523 31.1282 18.5852 31.4447C18.5213 31.7194 18.4423 31.9905 18.3486 32.2566C18.1888 32.6977 18.029 32.9375 17.9235 32.9375C17.818 32.9375 17.671 32.6977 17.4983 32.2822C17.3161 31.8155 17.0892 31.2401 16.8335 30.5816C16.696 30.2364 16.5138 29.8688 16.3636 29.4788C16.2133 29.0888 15.9864 28.6956 15.7786 28.2897C15.3275 27.4564 14.8112 26.6601 14.2347 25.9082C13.6537 25.1776 12.9921 24.5149 12.2624 23.9327C11.6248 23.4258 10.9243 23.0035 10.1782 22.6765C9.60892 22.4264 9.00921 22.2523 8.39452 22.1586C8.27725 22.1367 8.15877 22.1217 8.03971 22.1139C7.934 22.0965 7.82716 22.0869 7.72005 22.0851C7.62415 22.0851 7.53465 22.0851 7.45154 22.0627C7.36843 22.0404 7.29491 22.0627 7.22458 22.0627C6.67157 22.0244 6.23045 21.9924 5.78613 21.9732C5.29908 21.9428 4.81031 21.9545 4.32529 22.0084C3.27682 22.1203 2.07811 22.5294 1.09996 22.1043Z" fill="white"/>
<path d="M25.535 36.6526C25.535 36.6526 20.1488 48.0899 25.535 48.1091C31.0363 48.1314 25.8514 35.9717 25.535 36.6526Z" fill="white"/>
<path d="M28.4658 36.6834C28.4658 36.6834 32.0651 45.4484 34.7982 42.4788C37.592 39.4453 28.2452 36.1592 28.4658 36.6834Z" fill="white"/>
<path d="M22.613 37.0164C22.613 37.0164 13.2631 38.57 15.5454 41.8912C17.8917 45.2828 23.1724 36.9205 22.613 37.0164Z" fill="white"/>
</svg>
