<svg width="63" height="62" viewBox="0 0 63 62" fill="none" xmlns="http://www.w3.org/2000/svg">
<path d="M61.281 21C61.281 21 59.854 21 58.127 20.99C54.597 20.969 51.279 19.584 48.787 17.092C47.65 15.956 46.288 15.116 44.805 14.6L46.379 12.538C46.961 11.761 47.281 10.799 47.281 9.829C47.281 9.132 47.116 8.434 46.804 7.811L45.728 5.658C45.217 4.635 44.188 4 43.045 4H34.507L33.574 1.573C33.211 0.632 32.289 0 31.281 0C30.273 0 29.351 0.632 28.988 1.574L28.055 4H19.517C18.373 4 17.345 4.635 16.833 5.658L15.757 7.81C15.446 8.434 15.281 9.132 15.281 9.829C15.281 10.799 15.601 11.761 16.188 12.543L17.757 14.598C16.274 15.115 14.912 15.954 13.775 17.091C11.283 19.584 7.965 20.968 4.435 20.989C2.709 21 1.282 21 1.281 21H0L0.312 22.243C1.011 25.043 3.517 27 6.404 27H7.358L22.634 41.284L24.131 59.249C24.26 60.791 25.573 62 27.121 62H35.441C36.989 62 38.302 60.791 38.429 59.249L39.927 41.283L55.204 27H56.158C59.045 27 61.551 25.043 62.251 22.243L62.562 21H61.281ZM43.045 6C43.426 6 43.769 6.212 43.94 6.553L45.016 8.706C45.189 9.053 45.281 9.441 45.281 9.829C45.281 10.37 45.102 10.905 44.784 11.33L42.676 14.092C42.545 14.075 42.412 14.069 42.281 14.058V14C42.281 12.897 41.384 12 40.281 12H37.584L35.276 6H43.045ZM38.219 37.717L37.999 40.35L32.281 45.696V15.618L34.492 16.723C34.853 16.904 35.259 17 35.663 17C37.106 17 38.281 15.826 38.281 14.382C38.281 14.254 38.262 14.127 38.246 14H40.281V20H35.024L37.812 32.084C38.124 33.432 38.281 34.815 38.281 36.197C38.281 36.705 38.26 37.212 38.219 37.717V37.717ZM24.344 37.718C24.302 37.212 24.281 36.705 24.281 36.197C24.281 34.815 24.438 33.431 24.75 32.084L27.538 20H22.281V14H24.316C24.3 14.127 24.281 14.253 24.281 14.382C24.281 15.826 25.456 17 26.899 17C27.303 17 27.709 16.904 28.07 16.724L30.281 15.618V45.696L24.564 40.35L24.344 37.718ZM31.281 49.944L32.394 51.799C32.801 52.477 33.074 53.224 33.2 53.999H29.362C29.488 53.224 29.76 52.477 30.168 51.799L31.281 49.944ZM30.854 2.293C30.991 1.942 31.572 1.943 31.707 2.292L36.21 14C36.257 14.124 36.281 14.252 36.281 14.382C36.281 14.818 35.773 15.131 35.386 14.935L31.281 12.882L27.176 14.935C26.789 15.133 26.281 14.819 26.281 14.382C26.281 14.253 26.305 14.124 26.351 14.003L30.854 2.293ZM17.783 11.336C17.46 10.905 17.281 10.37 17.281 9.829C17.281 9.441 17.373 9.053 17.547 8.705L18.623 6.552C18.794 6.212 19.136 6 19.517 6H27.286L24.978 12H22.281C21.178 12 20.281 12.897 20.281 14V14.058C20.15 14.07 20.017 14.075 19.887 14.092L17.783 11.336ZM2.778 22.997C3.264 22.996 3.838 22.993 4.447 22.99C8.508 22.965 12.323 21.373 15.189 18.506C16.571 17.125 18.358 16.274 20.281 16.062V18.075C18.461 18.319 16.781 19.214 15.57 20.628L14.467 21.912C12.786 23.874 10.338 25 7.753 25H6.404C4.898 25 3.545 24.219 2.778 22.997V22.997ZM10.026 26.757C12.328 26.264 14.426 25.034 15.986 23.213L17.088 21.929C17.92 20.958 19.054 20.322 20.291 20.097C20.342 21.154 21.211 22 22.281 22H25.024L22.8 31.634C22.455 33.129 22.28 34.664 22.28 36.197C22.28 36.753 22.303 37.32 22.35 37.883L22.386 38.315L10.026 26.757ZM36.436 59.083C36.393 59.606 35.966 60 35.441 60H27.121C26.597 60 26.169 59.606 26.125 59.083L24.811 43.319L30.008 48.178L28.453 50.77C27.686 52.047 27.281 53.51 27.281 55V56H35.281V55C35.281 53.51 34.876 52.047 34.109 50.771L32.554 48.179L37.751 43.32L36.436 59.083ZM39.761 31.634L37.538 22H40.281C41.351 22 42.22 21.154 42.271 20.096C43.508 20.321 44.642 20.957 45.474 21.928L46.575 23.212C48.136 25.033 50.235 26.263 52.536 26.756L40.176 38.314L40.212 37.881C40.258 37.32 40.281 36.753 40.281 36.197C40.281 34.664 40.106 33.129 39.761 31.634V31.634ZM56.158 25H54.809C52.224 25 49.776 23.874 48.093 21.911L46.991 20.627C45.781 19.214 44.101 18.318 42.281 18.074V16.061C44.205 16.274 45.991 17.124 47.373 18.505C50.239 21.372 54.055 22.964 58.115 22.989C58.725 22.992 59.298 22.995 59.784 22.996C59.017 24.219 57.664 25 56.158 25V25Z" fill="#FF7A00"/>
</svg>
