<svg width="47" height="64" viewBox="0 0 47 64" fill="none" xmlns="http://www.w3.org/2000/svg">
<path d="M44.8001 19.2H44.7644C44.1238 5.63738 31.4191 2.79163 27.7334 2.25388V2.13337C27.7319 0.95575 26.7776 0.0015 25.6001 0H21.3335C20.1559 0.0015 19.2018 0.95575 19.2001 2.13337V2.25388C15.5144 2.79163 2.80963 5.63738 2.16913 19.2H2.13338C0.95575 19.2015 0.001625 20.1558 0 21.3334V25.6C0.0015 26.7776 0.95575 27.7318 2.13338 27.7334V49.5094C2.13438 50.2799 2.54987 50.9901 3.22087 51.3688L19.6152 60.5901L22.7126 63.6875C22.9126 63.8876 23.1839 64 23.4668 64C23.7496 64 24.0209 63.8876 24.2209 63.6875L27.3183 60.5901L43.7146 51.3677C44.3846 50.9889 44.7991 50.2791 44.8 49.5094V27.7334C45.9776 27.7319 46.9318 26.7776 46.9334 25.6V21.3334C46.9319 20.1558 45.9776 19.2015 44.8001 19.2ZM27.7334 4.39187C31.3066 4.90962 42.0156 7.44625 42.6319 19.2H27.7334V4.39187ZM19.2001 4.39463V19.2H4.30175C4.9195 7.47688 15.6259 4.9205 19.2001 4.39463ZM19.2001 57.9099L4.26675 49.5094V27.7334H7.46675V32C7.46825 33.1776 8.4225 34.1317 9.60013 34.1334H19.2001V57.9099V57.9099ZM19.2001 32H9.60013V27.7334H19.2001V32V32ZM25.6001 59.2916L23.4668 61.425L21.3334 59.2916V27.7334H25.6V59.2916H25.6001ZM42.6668 49.5104L27.7334 57.9101V34.1334H37.3334C38.511 34.1319 39.4651 33.1776 39.4668 32V27.7334H42.6668V49.5104V49.5104ZM27.7334 32V27.7334H37.3334V32H27.7334ZM44.8001 25.6H2.13338V21.3334H20.2668C20.5498 21.3335 20.8211 21.2213 21.0211 21.0211C21.2211 20.821 21.3335 20.5496 21.3334 20.2668V2.13337H25.6V20.2668C25.5999 20.5498 25.7121 20.8211 25.9123 21.0211C26.1124 21.2211 26.3838 21.3335 26.6666 21.3334H44.8V25.6H44.8001Z" fill="#FF7A00"/>
<path d="M7.87208 36.3522C7.47495 36.1844 7.01595 36.2729 6.70958 36.5762C6.51445 36.7804 6.40395 37.0509 6.4002 37.3334C6.39733 37.6172 6.50883 37.8902 6.70958 38.0908C6.81158 38.1873 6.93108 38.2633 7.0617 38.3148C7.18833 38.3743 7.32708 38.4036 7.46695 38.4002C7.7507 38.4029 8.02358 38.2914 8.2242 38.0908C8.42483 37.8902 8.53633 37.6172 8.53358 37.3336C8.52945 37.0512 8.41895 36.7808 8.2242 36.5762C8.12195 36.4798 8.00245 36.4038 7.87208 36.3522Z" fill="#FF7A00"/>
<path d="M11.3281 38.3147C11.4547 38.3742 11.5934 38.4034 11.7333 38.4001C12.0171 38.4028 12.2899 38.2913 12.4906 38.0907C12.6912 37.8901 12.8027 37.6171 12.7999 37.3334C12.7958 37.0511 12.6853 36.7807 12.4906 36.5761C12.3884 36.4798 12.2689 36.4038 12.1384 36.3522C11.7413 36.1844 11.2823 36.2729 10.9759 36.5762C10.7808 36.7804 10.6703 37.0509 10.6666 37.3334C10.6637 37.6172 10.7752 37.8902 10.9759 38.0908C11.0779 38.1872 11.1974 38.2633 11.3281 38.3147Z" fill="#FF7A00"/>
<path d="M15.5949 38.3146C15.7215 38.3741 15.8603 38.4033 16.0002 38.3999C16.2839 38.4027 16.5568 38.2912 16.7574 38.0906C16.958 37.8899 17.0695 37.6169 17.0668 37.3333C17.0627 37.0509 16.9522 36.7806 16.7574 36.5759C16.6553 36.4797 16.5358 36.4037 16.4053 36.3519C16.0082 36.1842 15.5492 36.2727 15.2428 36.5759C15.0477 36.7802 14.937 37.0508 14.9334 37.3333C14.9305 37.6171 15.042 37.8901 15.2428 38.0907C15.3448 38.1871 15.4643 38.2631 15.5949 38.3146Z" fill="#FF7A00"/>
<path d="M7.87208 40.6178C7.47495 40.4501 7.01595 40.5386 6.70958 40.8418C6.51445 41.0461 6.40395 41.3167 6.4002 41.5992C6.39733 41.8829 6.50883 42.1559 6.70958 42.3566C6.81158 42.4531 6.93108 42.5291 7.0617 42.5806C7.18833 42.6401 7.32708 42.6692 7.46695 42.6658C7.7507 42.6686 8.02358 42.5571 8.2242 42.3564C8.42483 42.1558 8.53633 41.8829 8.53358 41.5992C8.52945 41.3168 8.41895 41.0464 8.2242 40.8418C8.12195 40.7454 8.00245 40.6694 7.87208 40.6178Z" fill="#FF7A00"/>
<path d="M12.1387 40.6178C11.7416 40.4501 11.2826 40.5386 10.9762 40.8418C10.7811 41.0461 10.6706 41.3167 10.6668 41.5992C10.6639 41.8829 10.7754 42.1559 10.9762 42.3566C11.0782 42.4531 11.1977 42.5291 11.3283 42.5806C11.4549 42.6401 11.5937 42.6692 11.7336 42.6658C12.0173 42.6686 12.2902 42.5571 12.4908 42.3564C12.6914 42.1558 12.8029 41.8829 12.8002 41.5992C12.7961 41.3168 12.6856 41.0464 12.4908 40.8418C12.3887 40.7454 12.2692 40.6694 12.1387 40.6178Z" fill="#FF7A00"/>
<path d="M16.4053 40.6178C16.0082 40.4501 15.5492 40.5386 15.2428 40.8418C15.0477 41.0461 14.9372 41.3167 14.9334 41.5992C14.9305 41.8829 15.042 42.1559 15.2428 42.3566C15.3448 42.4531 15.4643 42.5291 15.5949 42.5806C15.7215 42.6401 15.8603 42.6692 16.0002 42.6658C16.2839 42.6686 16.5568 42.5571 16.7574 42.3564C16.958 42.1558 17.0695 41.8829 17.0668 41.5992C17.0627 41.3168 16.9522 41.0464 16.7574 40.8418C16.6553 40.7454 16.5358 40.6694 16.4053 40.6178Z" fill="#FF7A00"/>
<path d="M7.87208 44.8832C7.47495 44.7154 7.01595 44.8039 6.70958 45.1072C6.51445 45.3114 6.40395 45.5821 6.4002 45.8646C6.39733 46.1483 6.50883 46.4213 6.70958 46.6219C6.81158 46.7184 6.93108 46.7944 7.0617 46.8459C7.18833 46.9054 7.32708 46.9346 7.46695 46.9312C7.7507 46.9339 8.02358 46.8224 8.2242 46.6218C8.42483 46.4212 8.53633 46.1483 8.53358 45.8646C8.52945 45.5822 8.41895 45.3118 8.2242 45.1072C8.12195 45.0108 8.00245 44.9348 7.87208 44.8832Z" fill="#FF7A00"/>
<path d="M12.1387 44.8832C11.7416 44.7154 11.2826 44.8039 10.9762 45.1072C10.7811 45.3114 10.6706 45.5821 10.6668 45.8646C10.6639 46.1483 10.7754 46.4213 10.9762 46.6219C11.0782 46.7184 11.1977 46.7944 11.3283 46.8459C11.4549 46.9054 11.5937 46.9346 11.7336 46.9312C12.0173 46.9339 12.2902 46.8224 12.4908 46.6218C12.6914 46.4212 12.8029 46.1483 12.8002 45.8646C12.7961 45.5822 12.6856 45.3118 12.4908 45.1072C12.3887 45.0108 12.2692 44.9348 12.1387 44.8832Z" fill="#FF7A00"/>
<path d="M16.4053 44.8832C16.0082 44.7154 15.5492 44.8039 15.2428 45.1072C15.0477 45.3114 14.9372 45.5821 14.9334 45.8646C14.9305 46.1483 15.042 46.4213 15.2428 46.6219C15.3448 46.7184 15.4643 46.7944 15.5949 46.8459C15.7215 46.9054 15.8603 46.9346 16.0002 46.9312C16.2839 46.9339 16.5568 46.8224 16.7574 46.6218C16.958 46.4212 17.0695 46.1483 17.0668 45.8646C17.0627 45.5822 16.9522 45.3118 16.7574 45.1072C16.6553 45.0108 16.5358 44.9348 16.4053 44.8832Z" fill="#FF7A00"/>
<path d="M12.1387 49.1488C11.7416 48.9811 11.2826 49.0696 10.9762 49.3728C10.7811 49.5771 10.6706 49.8477 10.6668 50.1302C10.6639 50.4139 10.7754 50.6869 10.9762 50.8876C11.0782 50.9841 11.1977 51.0601 11.3283 51.1116C11.4549 51.1711 11.5937 51.2003 11.7336 51.1968C12.0173 51.1996 12.2902 51.0881 12.4908 50.8874C12.6914 50.6868 12.8029 50.4139 12.8002 50.1302C12.7961 49.8478 12.6856 49.5774 12.4908 49.3728C12.3887 49.2764 12.2692 49.2004 12.1387 49.1488Z" fill="#FF7A00"/>
<path d="M16.4053 49.1488C16.0082 48.9811 15.5492 49.0696 15.2428 49.3728C15.0477 49.5771 14.9372 49.8477 14.9334 50.1302C14.9305 50.4139 15.042 50.6869 15.2428 50.8876C15.3448 50.9841 15.4643 51.0601 15.5949 51.1116C15.7215 51.1711 15.8603 51.2003 16.0002 51.1968C16.2839 51.1996 16.5568 51.0881 16.7574 50.8874C16.958 50.6868 17.0695 50.4139 17.0668 50.1302C17.0627 49.8478 16.9522 49.5774 16.7574 49.3728C16.6553 49.2764 16.5358 49.2004 16.4053 49.1488Z" fill="#FF7A00"/>
<path d="M38.7096 36.5762C38.5148 36.7807 38.4044 37.0511 38.4002 37.3335C38.3974 37.6172 38.5089 37.8901 38.7096 38.0907C38.9102 38.2913 39.1832 38.4028 39.4668 38.4001C39.6067 38.4035 39.7454 38.3742 39.8721 38.3147C40.0027 38.2632 40.1222 38.1872 40.2242 38.0907C40.4249 37.8902 40.5364 37.6172 40.5336 37.3335C40.5299 37.051 40.4193 36.7805 40.2242 36.5761C39.9178 36.2728 39.4587 36.1845 39.0617 36.3522C38.9311 36.4038 38.8117 36.48 38.7096 36.5762Z" fill="#FF7A00"/>
<path d="M34.7948 36.3522C34.6643 36.404 34.5449 36.48 34.4427 36.5762C34.248 36.7807 34.1376 37.0511 34.1334 37.3335C34.1306 37.6172 34.2421 37.8901 34.4427 38.0907C34.6434 38.2913 34.9162 38.4028 35.2 38.4001C35.3398 38.4035 35.4786 38.3742 35.6052 38.3147C35.7358 38.2632 35.8553 38.1872 35.9573 38.0907C36.1581 37.8902 36.2696 37.6172 36.2667 37.3335C36.263 37.051 36.1525 36.7805 35.9573 36.5761C35.651 36.2728 35.192 36.1845 34.7948 36.3522Z" fill="#FF7A00"/>
<path d="M30.5282 36.3522C30.3977 36.404 30.2782 36.48 30.1761 36.5762C29.9814 36.7807 29.871 37.0511 29.8667 37.3335C29.864 37.6172 29.9755 37.8901 30.1761 38.0907C30.3767 38.2913 30.6496 38.4028 30.9334 38.4001C31.0732 38.4035 31.212 38.3742 31.3386 38.3147C31.4692 38.2632 31.5887 38.1872 31.6907 38.0907C31.8915 37.8902 32.003 37.6172 32.0001 37.3335C31.9964 37.051 31.8859 36.7805 31.6907 36.5761C31.3844 36.2728 30.9252 36.1845 30.5282 36.3522Z" fill="#FF7A00"/>
<path d="M39.0615 40.6178C38.931 40.6696 38.8115 40.7456 38.7093 40.8418C38.5146 41.0463 38.4042 41.3168 38.4 41.5992C38.3972 41.883 38.5087 42.1558 38.7093 42.3565C38.91 42.5571 39.1828 42.6686 39.4666 42.6658C39.6065 42.6692 39.7452 42.64 39.8718 42.5805C40.0025 42.529 40.122 42.453 40.224 42.3565C40.4247 42.1558 40.5362 41.8828 40.5333 41.5991C40.5296 41.3166 40.4191 41.0461 40.224 40.8417C39.9177 40.5385 39.4586 40.4501 39.0615 40.6178Z" fill="#FF7A00"/>
<path d="M34.7948 40.6178C34.6643 40.6696 34.5449 40.7456 34.4427 40.8418C34.248 41.0463 34.1376 41.3168 34.1334 41.5992C34.1306 41.883 34.2421 42.1558 34.4427 42.3565C34.6434 42.5571 34.9162 42.6686 35.2 42.6658C35.3398 42.6692 35.4786 42.64 35.6052 42.5805C35.7358 42.529 35.8553 42.453 35.9573 42.3565C36.1581 42.1558 36.2696 41.8828 36.2667 41.5991C36.263 41.3166 36.1525 41.0461 35.9573 40.8417C35.651 40.5385 35.192 40.4501 34.7948 40.6178Z" fill="#FF7A00"/>
<path d="M30.5282 40.6178C30.3977 40.6696 30.2782 40.7456 30.1761 40.8418C29.9814 41.0463 29.871 41.3168 29.8667 41.5992C29.864 41.883 29.9755 42.1558 30.1761 42.3565C30.3767 42.5571 30.6496 42.6686 30.9334 42.6658C31.0732 42.6692 31.212 42.64 31.3386 42.5805C31.4692 42.529 31.5887 42.453 31.6907 42.3565C31.8915 42.1558 32.003 41.8828 32.0001 41.5991C31.9964 41.3166 31.8859 41.0461 31.6907 40.8417C31.3844 40.5385 30.9252 40.4501 30.5282 40.6178Z" fill="#FF7A00"/>
<path d="M39.0615 44.8832C38.931 44.935 38.8115 45.011 38.7093 45.1072C38.5146 45.3117 38.4042 45.5822 38.4 45.8646C38.3972 46.1484 38.5087 46.4212 38.7093 46.6219C38.91 46.8225 39.1828 46.934 39.4666 46.9312C39.6065 46.9346 39.7452 46.9054 39.8718 46.8459C40.0025 46.7944 40.122 46.7184 40.224 46.6219C40.4247 46.4212 40.5362 46.1482 40.5333 45.8645C40.5296 45.582 40.4191 45.3115 40.224 45.1071C39.9177 44.8039 39.4586 44.7155 39.0615 44.8832Z" fill="#FF7A00"/>
<path d="M34.7948 44.8832C34.6643 44.935 34.5449 45.011 34.4427 45.1072C34.248 45.3117 34.1376 45.5822 34.1334 45.8646C34.1306 46.1484 34.2421 46.4212 34.4427 46.6219C34.6434 46.8225 34.9162 46.934 35.2 46.9312C35.3398 46.9346 35.4786 46.9054 35.6052 46.8459C35.7358 46.7944 35.8553 46.7184 35.9573 46.6219C36.1581 46.4212 36.2696 46.1482 36.2667 45.8645C36.263 45.582 36.1525 45.3115 35.9573 45.1071C35.651 44.8039 35.192 44.7155 34.7948 44.8832Z" fill="#FF7A00"/>
<path d="M30.5282 44.8832C30.3977 44.935 30.2782 45.011 30.1761 45.1072C29.9814 45.3117 29.871 45.5822 29.8667 45.8646C29.864 46.1484 29.9755 46.4212 30.1761 46.6219C30.3767 46.8225 30.6496 46.934 30.9334 46.9312C31.0732 46.9346 31.212 46.9054 31.3386 46.8459C31.4692 46.7944 31.5887 46.7184 31.6907 46.6219C31.8915 46.4212 32.003 46.1482 32.0001 45.8645C31.9964 45.582 31.8859 45.3115 31.6907 45.1071C31.3844 44.8039 30.9252 44.7155 30.5282 44.8832Z" fill="#FF7A00"/>
<path d="M34.7948 49.1487C34.6643 49.2004 34.5449 49.2764 34.4427 49.3727C34.248 49.5772 34.1376 49.8477 34.1334 50.13C34.1306 50.4138 34.2421 50.6867 34.4427 50.8873C34.6434 51.0879 34.9162 51.1994 35.2 51.1967C35.3398 51.2 35.4786 51.1708 35.6052 51.1113C35.7358 51.0598 35.8553 50.9838 35.9573 50.8873C36.1581 50.6867 36.2696 50.4137 36.2667 50.1299C36.263 49.8474 36.1525 49.5769 35.9573 49.3725C35.651 49.0693 35.192 48.9808 34.7948 49.1487Z" fill="#FF7A00"/>
<path d="M30.5282 49.1487C30.3977 49.2004 30.2782 49.2764 30.1761 49.3727C29.9814 49.5772 29.871 49.8477 29.8667 50.13C29.864 50.4138 29.9755 50.6867 30.1761 50.8873C30.3767 51.0879 30.6496 51.1994 30.9334 51.1967C31.0732 51.2 31.212 51.1708 31.3386 51.1113C31.4692 51.0598 31.5887 50.9838 31.6907 50.8873C31.8915 50.6867 32.003 50.4137 32.0001 50.1299C31.9964 49.8474 31.8859 49.5769 31.6907 49.3725C31.3844 49.0693 30.9252 48.9808 30.5282 49.1487Z" fill="#FF7A00"/>
</svg>
