<svg width="64" height="64" viewBox="0 0 64 64" fill="none" xmlns="http://www.w3.org/2000/svg">
<path d="M63.459 46.1112L44.459 36.3032C43.969 36.0502 43.364 36.2422 43.111 36.7332C42.858 37.2242 43.05 37.8272 43.541 38.0812L50.556 41.7022L42.205 46.1372L38.396 44.1172C37.908 43.8592 37.303 44.0441 37.044 44.5311C36.784 45.0191 36.97 45.6242 37.458 45.8842L40.071 47.2702L31.999 51.5572L23.927 47.2702L26.54 45.8842C27.028 45.6252 27.214 45.0191 26.954 44.5311C26.694 44.0431 26.09 43.8592 25.602 44.1172L21.793 46.1372L13.442 41.7022L20.457 38.0812C20.947 37.8282 21.14 37.2242 20.887 36.7332C20.634 36.2432 20.03 36.0492 19.539 36.3032L0.541 46.1112C0.209 46.2832 0 46.6262 0 47.0002C0 47.3742 0.209 47.7172 0.542 47.8892L31.542 63.8892C31.686 63.9632 31.843 64.0002 32 64.0002C32.157 64.0002 32.314 63.9632 32.458 63.8892L63.458 47.8892C63.791 47.7182 64 47.3752 64 47.0002C64 46.6252 63.791 46.2832 63.459 46.1112V46.1112ZM42.206 48.4012L50.047 52.5602L41.853 56.7892L34.132 52.6892L42.206 48.4012ZM29.868 52.6892L22.147 56.7892L13.953 52.5602L21.794 48.4012L29.868 52.6892ZM11.282 42.8182L19.661 47.2682L11.789 51.4432L3.181 47.0002L11.281 42.8182H11.282ZM32 61.8752L24.31 57.9052L32 53.8212L39.69 57.9052L32 61.8752ZM52.21 51.4432L44.338 47.2682L52.717 42.8182L60.817 47.0002L52.209 51.4432H52.21Z" fill="#FF7A00"/>
<path d="M15.51 30.8722L23.86 35.5703L31.147 47.5213C31.328 47.8193 31.652 48.0003 32.001 48.0003C32.35 48.0003 32.674 47.8183 32.855 47.5213L40.142 35.5703L48.492 30.8722C48.807 30.6952 49.002 30.3622 49.002 30.0002V10.0002C49.002 9.63925 48.807 9.30625 48.492 9.12825L32.49 0.12825C32.185 -0.04275 31.814 -0.04275 31.51 0.12825L15.51 9.12825C15.196 9.30525 15 9.63825 15 10.0002V30.0002C15 30.3612 15.194 30.6942 15.51 30.8722V30.8722ZM17 10.5852L32 2.14725L47 10.5852V29.4163L34.51 36.4433C34.029 36.7143 33.858 37.3233 34.128 37.8043C34.484 38.5113 35.335 38.2733 35.49 38.1863L36.575 37.5763L32 45.0793L27.425 37.5763L28.51 38.1863C28.991 38.4563 29.602 38.2863 29.872 37.8043C30.142 37.3223 29.972 36.7133 29.49 36.4433L17 29.4163V10.5852Z" fill="#FF7A00"/>
<path d="M32 14.0002C34.206 14.0002 36 12.2062 36 10.0002C36 7.79424 34.206 6.00024 32 6.00024C30.005 6.00024 28.361 7.47224 28.062 9.38424L21.504 13.1322C21.192 13.3102 21 13.6412 21 14.0002V20.0002C21 20.5522 21.447 21.0002 22 21.0002C22.553 21.0002 23 20.5522 23 20.0002V14.5802L28.312 11.5452C28.918 12.9852 30.342 14.0002 32 14.0002ZM32 8.00024C33.103 8.00024 34 8.89724 34 10.0002C34 11.1032 33.103 12.0002 32 12.0002C30.897 12.0002 30 11.1032 30 10.0002C30 8.89724 30.897 8.00024 32 8.00024Z" fill="#FF7A00"/>
<path d="M35.938 30.6162L42.496 26.8682C42.808 26.6902 43 26.3592 43 26.0002V20.0002C43 19.4482 42.553 19.0002 42 19.0002C41.447 19.0002 41 19.4482 41 20.0002V25.4202L35.688 28.4552C35.082 27.0152 33.658 26.0002 32 26.0002C29.794 26.0002 28 27.7942 28 30.0002C28 32.2062 29.794 34.0002 32 34.0002C33.995 34.0002 35.639 32.5282 35.938 30.6162ZM30 30.0002C30 28.8972 30.897 28.0002 32 28.0002C33.103 28.0002 34 28.8972 34 30.0002C34 31.1032 33.103 32.0002 32 32.0002C30.897 32.0002 30 31.1032 30 30.0002V30.0002Z" fill="#FF7A00"/>
<path d="M42 17.0002C42.5523 17.0002 43 16.5525 43 16.0002C43 15.448 42.5523 15.0002 42 15.0002C41.4477 15.0002 41 15.448 41 16.0002C41 16.5525 41.4477 17.0002 42 17.0002Z" fill="#FF7A00"/>
<path d="M22 25.0002C22.5523 25.0002 23 24.5525 23 24.0002C23 23.448 22.5523 23.0002 22 23.0002C21.4477 23.0002 21 23.448 21 24.0002C21 24.5525 21.4477 25.0002 22 25.0002Z" fill="#FF7A00"/>
</svg>
