<svg width="64" height="64" viewBox="0 0 64 64" fill="none" xmlns="http://www.w3.org/2000/svg">
<path d="M59.9888 55.3525L52.7767 48.1414L55.0371 45.8809C55.8445 45.0736 56.1597 43.8967 55.8642 42.794C55.5687 41.6913 54.7071 40.8297 53.6043 40.5343C52.5014 40.2388 51.3247 40.5542 50.5173 41.3616L50.516 41.3629L41.0128 31.8866L62.8545 10.1066C63.0314 9.93044 63.1407 9.69766 63.1634 9.44914L63.9166 1.16253C63.9453 0.847497 63.8325 0.536148 63.6087 0.312631C63.3859 0.0878454 63.0742 -0.0251187 62.7592 0.00470889L54.4726 0.757887C54.2248 0.78048 53.9928 0.889002 53.8166 1.06479L31.96 22.86L10.1059 1.06784C9.92994 0.892175 9.69804 0.783653 9.45041 0.760934L1.16227 0.00445504C0.847242 -0.0239764 0.535893 0.0888608 0.312249 0.312504C0.0886056 0.536148 -0.0241046 0.847497 0.00432677 1.16253L0.760678 9.45117C0.783398 9.69982 0.892808 9.93248 1.06962 10.1086L22.9089 31.8856L13.4049 41.3626L13.4039 41.3616C12.156 40.1134 10.1324 40.1133 8.88419 41.3614C7.636 42.6093 7.636 44.6329 8.88394 45.8811L11.1444 48.1415L3.9323 55.3525C2.92527 55.4098 1.97257 55.8279 1.24871 56.5303C-0.41529 58.1943 -0.41529 60.8921 1.24871 62.5561C2.91271 64.2201 5.61052 64.2201 7.27452 62.5561C8.00028 61.8269 8.43437 60.8574 8.49491 59.8304L15.6639 52.6608L17.9239 54.9207C18.731 55.7282 19.9077 56.0439 21.0106 55.7486C22.1136 55.4533 22.9751 54.5921 23.2709 53.4893C23.5666 52.3864 23.2516 51.2097 22.4445 50.4022L31.9612 40.9124L41.4776 50.4005L41.4769 50.4013C40.2289 51.6496 40.2291 53.6732 41.4774 54.9212C42.7257 56.1692 44.7493 56.1691 45.9973 54.9207L48.2573 52.6608L55.4263 59.8304C55.5327 62.135 57.443 63.9426 59.7499 63.9216C62.0569 63.9005 63.9339 62.0583 63.9982 59.7522C64.0626 57.4459 62.2911 55.5021 59.9888 55.3525ZM2.84772 8.87264L2.24279 2.24343L8.87366 2.84785L30.4513 24.3642L24.4175 30.3811L2.84772 8.87264ZM5.76803 61.0496C4.92512 61.8548 3.59798 61.8548 2.75507 61.0496C2.14557 60.4402 1.96318 59.5238 2.29293 58.7275C2.62268 57.9313 3.3996 57.412 4.26142 57.412C5.12325 57.412 5.90016 57.9312 6.22992 58.7275C6.55992 59.5238 6.37753 60.4402 5.76803 61.0496ZM7.92159 57.3905C7.74313 57.0775 7.5257 56.7885 7.27452 56.5302C7.01534 56.279 6.7229 56.0643 6.40546 55.8924L12.6506 49.648L14.1571 51.1545L7.92159 57.3905ZM20.9372 53.4144C20.5209 53.8301 19.8465 53.8301 19.4302 53.4144L10.3904 44.3746C9.97677 43.958 9.97791 43.2853 10.3931 42.8703C10.8083 42.4552 11.481 42.4542 11.8974 42.8681L16.4171 47.3881L16.4669 47.4377L16.4736 47.4478L16.4836 47.4546L20.1835 51.1547H20.1836L20.9367 51.9079C21.3517 52.3242 21.352 52.9977 20.9372 53.4144ZM31.2091 38.6538L31.2063 38.6556L31.2045 38.6582L20.9381 48.8957L18.735 46.6926L28.4524 36.9752C28.862 36.5581 28.8589 35.889 28.4455 35.4756C28.0321 35.0622 27.363 35.0592 26.9459 35.4687L17.2286 45.186L14.9114 42.8689L25.1697 32.6393L25.1721 32.6378L25.1736 32.6355L32.7105 25.1198L32.7148 25.1169L32.7176 25.1127L55.0486 2.8448L61.6789 2.24241L61.0765 8.87061L38.7534 31.1309L38.7491 31.1338L38.7463 31.138L31.2091 38.6538ZM33.4697 39.4082L39.5041 33.3909L49.0094 42.8692L46.6924 45.186L42.3019 40.7955C41.8848 40.3859 41.2157 40.389 40.8023 40.8023C40.389 41.2157 40.3859 41.8848 40.7955 42.3019L45.186 46.6924L42.9842 48.8939L33.4697 39.4082ZM44.4909 53.4144C44.0747 53.8292 43.4012 53.8287 42.9855 53.4132C42.57 52.9978 42.5692 52.3243 42.9839 51.9079L43.731 51.1609L43.7402 51.1547L47.4468 47.4484L47.4476 47.4478L47.4481 47.4471L51.2721 43.6233L51.2795 43.6124L52.0238 42.868C52.4398 42.4518 53.1143 42.4517 53.5305 42.8677C53.9467 43.2838 53.9468 43.9583 53.5308 44.3745L44.4909 53.4144ZM56.6467 56.5303C56.3954 56.7886 56.1779 57.0776 55.9996 57.3907L49.7641 51.1547L51.2706 49.6482L57.5157 55.8926C57.1982 56.0645 56.9059 56.279 56.6467 56.5303ZM61.166 61.0496C60.3231 61.8548 58.996 61.8548 58.153 61.0496C57.5435 60.4402 57.3611 59.5238 57.6909 58.7275C58.0207 57.9313 58.7976 57.412 59.6594 57.412C60.5212 57.412 61.2981 57.9312 61.6279 58.7275C61.9579 59.5238 61.7755 60.4404 61.166 61.0496Z" fill="#FF7A00"/>
</svg>
