<svg width="25" height="24" viewBox="0 0 25 24" fill="none" xmlns="http://www.w3.org/2000/svg">
<g clip-path="url(#clip0_448_1519)">
<path d="M22.6609 4.733L24.5759 2.901V2.5H17.9419L13.2139 14.268L7.83493 2.5H0.878928V2.901L3.11593 5.594C3.33393 5.793 3.44793 6.084 3.41893 6.377V16.96C3.48793 17.341 3.36393 17.733 3.09593 18.01L0.575928 21.064V21.46H7.72093V21.059L5.20093 18.01C4.92793 17.732 4.79893 17.347 4.85393 16.96V7.806L11.1259 21.465H11.8549L17.2479 7.806V18.687C17.2479 18.974 17.2479 19.033 17.0599 19.221L15.1199 21.098V21.5H24.5319V21.099L22.6619 19.268C22.4979 19.144 22.4129 18.936 22.4479 18.734V5.267C22.4129 5.064 22.4969 4.856 22.6609 4.733V4.733Z" fill="#F0F2F4"/>
</g>
<defs>
<clipPath id="clip0_448_1519">
<rect width="24" height="24" fill="white" transform="translate(0.575928)"/>
</clipPath>
</defs>
</svg>
