<svg width="25" height="24" viewBox="0 0 25 24" fill="none" xmlns="http://www.w3.org/2000/svg">
<g clip-path="url(#clip0_192_712)">
<path d="M22.6612 4.733L24.5762 2.901V2.5H17.9422L13.2142 14.268L7.83517 2.5H0.879172V2.901L3.11617 5.594C3.33417 5.793 3.44817 6.084 3.41917 6.377V16.96C3.48817 17.341 3.36417 17.733 3.09617 18.01L0.576172 21.064V21.46H7.72117V21.059L5.20117 18.01C4.92817 17.732 4.79917 17.347 4.85417 16.96V7.806L11.1262 21.465H11.8552L17.2482 7.806V18.687C17.2482 18.974 17.2482 19.033 17.0602 19.221L15.1202 21.098V21.5H24.5322V21.099L22.6622 19.268C22.4982 19.144 22.4132 18.936 22.4482 18.734V5.267C22.4132 5.064 22.4972 4.856 22.6612 4.733V4.733Z" fill="#F0F2F4"/>
</g>
<defs>
<clipPath id="clip0_192_712">
<rect width="24" height="24" fill="white" transform="translate(0.576172)"/>
</clipPath>
</defs>
</svg>
