<svg width="814" height="634" viewBox="0 0 814 634" fill="none" xmlns="http://www.w3.org/2000/svg">
<g opacity="0.05">
<path d="M65.782 207.12H51.5929C51.404 209.565 50.2946 211.847 48.4888 213.505C46.683 215.163 44.3153 216.074 41.8639 216.054C39.4125 216.034 37.0601 215.084 35.2816 213.397C33.5032 211.709 32.4314 209.409 32.2825 206.962C32.1337 204.514 32.9189 202.101 34.4797 200.211C36.0404 198.32 38.2604 197.092 40.6913 196.775C43.1222 196.457 45.5828 197.075 47.5763 198.502C49.5698 199.929 50.9475 202.06 51.4313 204.463H64.682L107.701 161.435H141.169C141.654 159.024 143.035 156.887 145.034 155.455C147.032 154.023 149.5 153.403 151.938 153.721C154.376 154.039 156.602 155.27 158.168 157.166C159.733 159.062 160.521 161.482 160.372 163.936C160.222 166.391 159.147 168.697 157.363 170.39C155.58 172.082 153.22 173.034 150.762 173.054C148.304 173.074 145.929 172.159 144.119 170.496C142.308 168.832 141.196 166.543 141.008 164.091H108.796L65.782 207.12ZM41.9298 199.35C40.5378 199.35 39.1771 199.763 38.0197 200.536C36.8623 201.31 35.9602 202.409 35.4275 203.695C34.8948 204.982 34.7554 206.397 35.027 207.763C35.2985 209.128 35.9689 210.383 36.9532 211.367C37.9375 212.352 39.1915 213.022 40.5568 213.294C41.922 213.566 43.3372 213.426 44.6232 212.893C45.9093 212.36 47.0085 211.458 47.7819 210.3C48.5552 209.143 48.968 207.782 48.968 206.389C48.9662 204.523 48.2241 202.733 46.9046 201.414C45.5851 200.094 43.7959 199.352 41.9298 199.35V199.35ZM150.671 170.398C152.062 170.398 153.422 169.985 154.579 169.211C155.736 168.438 156.637 167.338 157.17 166.052C157.702 164.766 157.841 163.352 157.569 161.987C157.297 160.622 156.627 159.368 155.643 158.384C154.659 157.4 153.405 156.73 152.04 156.458C150.676 156.187 149.261 156.327 147.976 156.859C146.69 157.392 145.591 158.294 144.818 159.451C144.045 160.609 143.633 161.969 143.633 163.361C143.635 165.227 144.377 167.016 145.696 168.336C147.016 169.655 148.805 170.397 150.671 170.398V170.398Z" fill="#FF7A00"/>
<path d="M281.093 156.976L301.588 177.475V188.783H298.932V178.575L279.993 159.632H219.736V173.136C222.18 173.325 224.461 174.435 226.119 176.241C227.777 178.047 228.688 180.415 228.668 182.867C228.648 185.319 227.698 187.672 226.011 189.451C224.324 191.23 222.024 192.302 219.577 192.451C217.131 192.6 214.718 191.814 212.828 190.253C210.937 188.692 209.71 186.472 209.393 184.04C209.076 181.609 209.693 179.147 211.12 177.154C212.546 175.16 214.676 173.782 217.08 173.298V156.976H281.093ZM211.967 182.806C211.967 184.198 212.379 185.559 213.152 186.717C213.925 187.875 215.024 188.778 216.31 189.311C217.596 189.844 219.012 189.984 220.377 189.713C221.742 189.441 222.997 188.771 223.981 187.787C224.966 186.802 225.636 185.548 225.908 184.182C226.18 182.816 226.04 181.401 225.508 180.114C224.975 178.828 224.073 177.728 222.916 176.955C221.758 176.181 220.397 175.768 219.005 175.768C217.139 175.771 215.351 176.513 214.031 177.833C212.712 179.152 211.969 180.942 211.967 182.808V182.806Z" fill="#FF7A00"/>
<path d="M208.22 234.918C205.774 234.731 203.49 233.623 201.829 231.817C200.169 230.011 199.255 227.642 199.273 225.188C199.291 222.734 200.239 220.379 201.926 218.597C203.613 216.816 205.913 215.741 208.362 215.59C210.81 215.439 213.225 216.223 215.118 217.783C217.011 219.344 218.241 221.565 218.561 223.998C218.88 226.431 218.264 228.895 216.838 230.891C215.412 232.887 213.281 234.268 210.876 234.754V240.656H248.384V243.312H208.22V234.918ZM215.987 225.253C215.987 223.861 215.574 222.5 214.801 221.343C214.028 220.186 212.929 219.284 211.643 218.751C210.358 218.218 208.943 218.079 207.578 218.35C206.213 218.622 204.96 219.292 203.976 220.276C202.992 221.261 202.322 222.515 202.05 223.88C201.779 225.245 201.918 226.66 202.45 227.946C202.983 229.232 203.885 230.331 205.042 231.104C206.199 231.878 207.559 232.29 208.951 232.29C210.816 232.288 212.605 231.546 213.924 230.227C215.243 228.908 215.985 227.119 215.987 225.253V225.253Z" fill="#FF7A00"/>
<path d="M177.747 234.05C175.315 233.714 173.101 232.466 171.553 230.56C170.004 228.654 169.237 226.232 169.406 223.782C169.574 221.332 170.666 219.037 172.461 217.361C174.256 215.686 176.619 214.754 179.075 214.754C181.53 214.754 183.894 215.686 185.688 217.361C187.483 219.037 188.575 221.332 188.744 223.782C188.912 226.232 188.145 228.654 186.597 230.56C185.048 232.466 182.835 233.714 180.403 234.05V263.161H238.821V265.817H177.747V234.05ZM186.111 224.449C186.111 223.057 185.698 221.695 184.925 220.537C184.152 219.379 183.053 218.476 181.767 217.943C180.481 217.41 179.065 217.271 177.7 217.542C176.334 217.814 175.08 218.484 174.096 219.469C173.111 220.454 172.441 221.708 172.169 223.074C171.898 224.44 172.038 225.855 172.57 227.142C173.103 228.428 174.006 229.528 175.164 230.301C176.321 231.074 177.682 231.487 179.075 231.487C180.94 231.485 182.729 230.743 184.048 229.423C185.367 228.104 186.109 226.315 186.111 224.449V224.449Z" fill="#FF7A00"/>
<path d="M143.275 234.39C140.866 233.903 138.732 232.521 137.303 230.521C135.874 228.522 135.257 226.054 135.576 223.617C135.896 221.18 137.128 218.955 139.024 217.392C140.92 215.828 143.339 215.043 145.792 215.194C148.244 215.345 150.548 216.422 152.238 218.207C153.928 219.991 154.877 222.351 154.895 224.809C154.913 227.266 153.997 229.639 152.333 231.448C150.669 233.257 148.381 234.367 145.931 234.553V283.685H232.431V286.342H143.275V234.39ZM152.239 224.888C152.239 223.496 151.827 222.134 151.054 220.976C150.281 219.819 149.182 218.916 147.896 218.383C146.61 217.85 145.194 217.71 143.829 217.981C142.464 218.253 141.209 218.923 140.225 219.907C139.24 220.892 138.57 222.146 138.298 223.512C138.026 224.877 138.166 226.293 138.698 227.579C139.231 228.866 140.133 229.966 141.29 230.739C142.448 231.513 143.809 231.926 145.201 231.926C147.066 231.924 148.855 231.182 150.175 229.863C151.494 228.543 152.237 226.754 152.239 224.888Z" fill="#FF7A00"/>
<path d="M215.212 400.781H260.752V403.438H217.868V412.915L228.549 423.599L237.451 414.695L257.728 434.979L237.451 455.262L217.171 434.979L226.67 425.478L215.212 414.015V400.781Z" fill="#FF7A00"/>
<path d="M334.395 454.438V483.075L308.823 508.652H248.692V488.031C246.28 487.553 244.14 486.177 242.703 484.181C241.267 482.186 240.641 479.719 240.952 477.28C241.264 474.84 242.489 472.61 244.381 471.04C246.273 469.469 248.69 468.675 251.145 468.819C253.599 468.962 255.907 470.031 257.604 471.811C259.3 473.591 260.258 475.949 260.284 478.408C260.31 480.867 259.401 483.244 257.743 485.059C256.084 486.874 253.798 487.992 251.347 488.186V505.996H307.723L331.739 481.974V454.438H334.395ZM257.629 478.523C257.629 477.131 257.216 475.77 256.442 474.612C255.669 473.454 254.57 472.552 253.283 472.019C251.997 471.486 250.582 471.347 249.217 471.619C247.851 471.891 246.597 472.561 245.613 473.546C244.629 474.531 243.959 475.785 243.687 477.151C243.416 478.517 243.556 479.932 244.089 481.219C244.622 482.505 245.524 483.604 246.682 484.378C247.84 485.151 249.201 485.563 250.593 485.563C252.459 485.561 254.248 484.819 255.567 483.499C256.886 482.179 257.627 480.39 257.629 478.523V478.523Z" fill="#FF7A00"/>
<path d="M355.905 454.437V484.269L316.979 523.202L316.589 523.592H241.465L222.367 488.672C219.949 489.09 217.463 488.576 215.409 487.233C213.356 485.889 211.888 483.817 211.302 481.434C210.716 479.05 211.055 476.534 212.252 474.391C213.448 472.248 215.412 470.639 217.748 469.887C220.084 469.136 222.618 469.298 224.838 470.342C227.059 471.386 228.801 473.233 229.714 475.511C230.627 477.79 230.642 480.329 229.756 482.618C228.87 484.907 227.15 486.774 224.941 487.844L243.039 520.935H315.489L353.25 483.169V454.437H355.905ZM227.759 479.12C227.759 477.728 227.346 476.367 226.573 475.21C225.8 474.053 224.701 473.151 223.415 472.618C222.13 472.085 220.715 471.946 219.35 472.218C217.985 472.489 216.732 473.159 215.748 474.144C214.764 475.128 214.094 476.382 213.822 477.747C213.551 479.112 213.69 480.527 214.222 481.813C214.755 483.099 215.657 484.198 216.814 484.971C217.971 485.745 219.331 486.157 220.723 486.157C222.588 486.155 224.375 485.412 225.693 484.093C227.011 482.773 227.753 480.985 227.754 479.12H227.759Z" fill="#FF7A00"/>
<path d="M289.32 553.866C286.888 553.529 284.674 552.282 283.126 550.376C281.578 548.47 280.811 546.048 280.979 543.598C281.148 541.148 282.24 538.853 284.034 537.177C285.829 535.501 288.193 534.569 290.648 534.569C293.103 534.569 295.467 535.501 297.262 537.177C299.056 538.853 300.148 541.148 300.317 543.598C300.486 546.048 299.718 548.47 298.17 550.376C296.622 552.282 294.408 553.529 291.976 553.866V561.251H317.997V552.983C316.305 552.639 314.736 551.85 313.451 550.697C312.165 549.544 311.212 548.068 310.688 546.423C310.164 544.778 310.088 543.022 310.47 541.338C310.851 539.654 311.675 538.102 312.857 536.843C314.039 535.584 315.535 534.664 317.192 534.177C318.848 533.69 320.604 533.655 322.279 534.074C323.954 534.494 325.486 535.353 326.718 536.563C327.949 537.773 328.835 539.29 329.285 540.957H337.425V518.129L372.974 482.572V456.229H375.63V483.679L340.081 519.23V543.614H329.612C329.576 546.034 328.637 548.353 326.98 550.116C325.322 551.88 323.066 552.959 320.653 553.144V561.251H330.86V574.996H279.478V561.251H289.32V553.866ZM297.66 544.26C297.66 542.868 297.248 541.507 296.475 540.349C295.701 539.191 294.602 538.288 293.316 537.755C292.03 537.222 290.615 537.082 289.25 537.354C287.884 537.625 286.63 538.295 285.646 539.28C284.661 540.264 283.991 541.518 283.719 542.884C283.447 544.25 283.586 545.665 284.119 546.952C284.652 548.238 285.554 549.338 286.711 550.111C287.869 550.885 289.229 551.298 290.621 551.298C292.487 551.296 294.276 550.554 295.595 549.235C296.915 547.916 297.657 546.127 297.66 544.26V544.26ZM326.961 543.481C326.961 542.089 326.549 540.728 325.776 539.57C325.003 538.412 323.903 537.509 322.617 536.976C321.331 536.443 319.916 536.303 318.551 536.574C317.185 536.846 315.931 537.516 314.947 538.5C313.962 539.485 313.292 540.739 313.02 542.105C312.748 543.47 312.887 544.886 313.42 546.172C313.953 547.459 314.855 548.558 316.012 549.332C317.17 550.106 318.53 550.519 319.923 550.519C321.788 550.516 323.577 549.774 324.896 548.455C326.215 547.136 326.958 545.347 326.961 543.481V543.481Z" fill="#FF7A00"/>
<path d="M455.707 554.344V531.722C453.275 531.385 451.062 530.138 449.513 528.232C447.965 526.326 447.198 523.904 447.366 521.454C447.535 519.004 448.627 516.709 450.422 515.033C452.216 513.357 454.58 512.425 457.035 512.425C459.491 512.425 461.854 513.357 463.649 515.033C465.444 516.709 466.536 519.004 466.704 521.454C466.873 523.904 466.106 526.326 464.557 528.232C463.009 530.138 460.795 531.385 458.363 531.722V553.237L483.278 578.153H525.805C526.289 575.742 527.67 573.605 529.669 572.173C531.668 570.741 534.136 570.122 536.574 570.439C539.011 570.757 541.238 571.988 542.803 573.884C544.369 575.78 545.157 578.2 545.007 580.655C544.858 583.109 543.783 585.416 541.999 587.108C540.216 588.8 537.856 589.752 535.398 589.772C532.939 589.792 530.565 588.878 528.754 587.214C526.944 585.55 525.832 583.261 525.644 580.81H482.171L455.707 554.344ZM464.071 522.121C464.072 520.728 463.659 519.367 462.886 518.209C462.113 517.051 461.014 516.148 459.727 515.615C458.441 515.082 457.026 514.943 455.661 515.214C454.295 515.486 453.041 516.156 452.056 517.141C451.072 518.125 450.402 519.38 450.13 520.746C449.859 522.112 449.998 523.527 450.531 524.814C451.064 526.1 451.967 527.2 453.124 527.973C454.282 528.746 455.643 529.159 457.035 529.158C458.902 529.156 460.692 528.413 462.011 527.091C463.33 525.77 464.071 523.979 464.071 522.112V522.121ZM535.304 587.108C536.696 587.107 538.056 586.694 539.213 585.921C540.37 585.147 541.271 584.048 541.803 582.762C542.335 581.476 542.474 580.061 542.203 578.696C541.931 577.331 541.261 576.077 540.277 575.093C539.292 574.109 538.039 573.439 536.674 573.168C535.309 572.896 533.895 573.036 532.609 573.569C531.324 574.101 530.225 575.003 529.452 576.161C528.679 577.318 528.266 578.678 528.266 580.07C528.268 581.936 529.01 583.726 530.33 585.045C531.649 586.365 533.439 587.106 535.304 587.108V587.108Z" fill="#FF7A00"/>
<path d="M481.43 545.858L474.527 538.955V508.01L436.977 470.461L436.587 470.071V439.043H439.243V468.971L476.793 506.527L477.183 506.914V537.864L482.53 543.21H608.793V543.394C609.199 540.965 610.514 538.782 612.472 537.288C614.429 535.794 616.881 535.102 619.331 535.352C621.78 535.601 624.042 536.774 625.658 538.633C627.273 540.491 628.121 542.894 628.028 545.355C627.936 547.816 626.91 550.149 625.16 551.881C623.409 553.612 621.065 554.612 618.604 554.677C616.143 554.742 613.749 553.868 611.91 552.231C610.07 550.595 608.923 548.319 608.7 545.866L481.43 545.858ZM618.352 552.016C619.744 552.016 621.104 551.603 622.261 550.83C623.418 550.057 624.32 548.958 624.852 547.672C625.385 546.386 625.524 544.971 625.253 543.606C624.981 542.241 624.311 540.987 623.327 540.002C622.343 539.018 621.09 538.348 619.725 538.076C618.36 537.805 616.945 537.944 615.66 538.477C614.374 539.009 613.275 539.912 612.502 541.069C611.729 542.226 611.316 543.587 611.316 544.979C611.316 546.846 612.056 548.637 613.376 549.959C614.695 551.28 616.485 552.023 618.352 552.025V552.016Z" fill="#FF7A00"/>
<path d="M506.501 445.668L486.903 426.065V398.026H489.559V424.965L507.601 443.011H567.562V439.892C565.13 439.556 562.917 438.309 561.369 436.403C559.82 434.497 559.053 432.074 559.222 429.624C559.39 427.174 560.482 424.879 562.277 423.204C564.072 421.528 566.435 420.596 568.89 420.596C571.346 420.596 573.709 421.528 575.504 423.204C577.299 424.879 578.391 427.174 578.559 429.624C578.728 432.074 577.961 434.497 576.412 436.403C574.864 438.309 572.65 439.556 570.218 439.892V445.664L506.501 445.668ZM575.926 430.296C575.927 428.903 575.514 427.542 574.741 426.384C573.968 425.226 572.869 424.323 571.583 423.79C570.296 423.257 568.881 423.117 567.516 423.389C566.15 423.661 564.896 424.331 563.912 425.316C562.927 426.3 562.257 427.555 561.985 428.921C561.714 430.286 561.853 431.702 562.386 432.989C562.919 434.275 563.822 435.374 564.979 436.148C566.137 436.921 567.498 437.334 568.89 437.333C570.756 437.331 572.544 436.589 573.864 435.27C575.183 433.951 575.925 432.162 575.926 430.296V430.296Z" fill="#FF7A00"/>
<path d="M622.507 478.192C622.171 480.624 620.924 482.839 619.019 484.387C617.113 485.936 614.691 486.703 612.242 486.535C609.792 486.366 607.498 485.274 605.823 483.479C604.147 481.684 603.215 479.319 603.215 476.864C603.215 474.408 604.147 472.044 605.823 470.248C607.498 468.453 609.792 467.361 612.242 467.193C614.691 467.024 617.113 467.791 619.019 469.34C620.924 470.888 622.171 473.103 622.507 475.535H662.459C662.795 473.103 664.042 470.888 665.948 469.34C667.853 467.791 670.275 467.024 672.725 467.193C675.174 467.361 677.468 468.453 679.144 470.248C680.819 472.044 681.751 474.408 681.751 476.864C681.751 479.319 680.819 481.684 679.144 483.479C677.468 485.274 675.174 486.366 672.725 486.535C670.275 486.703 667.853 485.936 665.948 484.387C664.042 482.839 662.795 480.624 662.459 478.192H622.507ZM612.906 469.826C611.515 469.827 610.155 470.24 608.998 471.013C607.841 471.787 606.94 472.886 606.408 474.172C605.875 475.458 605.737 476.873 606.008 478.238C606.28 479.603 606.95 480.857 607.934 481.841C608.918 482.825 610.172 483.495 611.537 483.766C612.902 484.037 614.316 483.898 615.602 483.365C616.887 482.832 617.986 481.931 618.759 480.773C619.532 479.616 619.945 478.255 619.945 476.864C619.944 474.997 619.202 473.206 617.883 471.886C616.563 470.565 614.773 469.823 612.906 469.822V469.826ZM672.066 483.897C673.458 483.896 674.818 483.483 675.975 482.71C677.131 481.936 678.033 480.837 678.565 479.551C679.097 478.265 679.236 476.85 678.965 475.485C678.693 474.12 678.023 472.866 677.038 471.882C676.054 470.898 674.801 470.228 673.436 469.957C672.071 469.685 670.657 469.825 669.371 470.358C668.086 470.89 666.987 471.792 666.214 472.95C665.441 474.107 665.028 475.467 665.028 476.859C665.03 478.726 665.772 480.515 667.092 481.834C668.411 483.154 670.2 483.896 672.066 483.897V483.897Z" fill="#FF7A00"/>
<path d="M539.584 396.375C541.994 396.86 544.131 398.241 545.562 400.24C546.994 402.239 547.614 404.708 547.296 407.146C546.978 409.584 545.747 411.812 543.852 413.377C541.956 414.943 539.537 415.731 537.083 415.582C534.629 415.432 532.323 414.357 530.631 412.573C528.939 410.789 527.987 408.429 527.967 405.97C527.948 403.511 528.862 401.136 530.525 399.325C532.188 397.514 534.477 396.402 536.928 396.214V377.924H499.42V375.267H539.584V396.375ZM530.622 405.877C530.622 407.269 531.034 408.63 531.808 409.788C532.581 410.946 533.68 411.849 534.966 412.382C536.252 412.915 537.668 413.055 539.033 412.783C540.399 412.512 541.653 411.841 542.637 410.857C543.622 409.872 544.292 408.617 544.564 407.252C544.835 405.886 544.696 404.47 544.163 403.184C543.63 401.897 542.727 400.798 541.569 400.025C540.412 399.251 539.051 398.839 537.658 398.839C535.793 398.841 534.005 399.584 532.686 400.903C531.367 402.222 530.625 404.011 530.622 405.877Z" fill="#FF7A00"/>
<path d="M579.631 372.766V385.327C582.042 385.811 584.179 387.193 585.611 389.193C587.043 391.192 587.662 393.661 587.345 396.1C587.027 398.539 585.796 400.767 583.9 402.333C582.004 403.899 579.584 404.687 577.129 404.538C574.675 404.388 572.368 403.313 570.676 401.528C568.984 399.744 568.032 397.383 568.012 394.924C567.992 392.464 568.907 390.089 570.57 388.277C572.234 386.466 574.523 385.354 576.975 385.165V373.875L565.205 362.102H506.605V359.446H566.305L579.631 372.766ZM570.667 394.83C570.667 396.223 571.08 397.584 571.853 398.741C572.627 399.899 573.726 400.801 575.012 401.334C576.298 401.867 577.713 402.007 579.078 401.735C580.444 401.463 581.698 400.793 582.682 399.808C583.666 398.824 584.336 397.569 584.608 396.204C584.88 394.838 584.74 393.423 584.207 392.136C583.675 390.85 582.773 389.751 581.615 388.977C580.458 388.204 579.097 387.791 577.705 387.791C575.839 387.793 574.05 388.535 572.73 389.855C571.411 391.174 570.669 392.964 570.667 394.83V394.83Z" fill="#FF7A00"/>
<path d="M671.239 399.427H622.059C621.327 400.78 620.285 401.939 619.017 402.809C617.749 403.68 616.292 404.235 614.767 404.431C613.242 404.627 611.692 404.457 610.246 403.935C608.799 403.413 607.498 402.555 606.449 401.431C605.399 400.306 604.633 398.949 604.212 397.469C603.791 395.99 603.728 394.432 604.028 392.924C604.328 391.415 604.983 390 605.938 388.795C606.893 387.59 608.121 386.629 609.521 385.992V372.951L581.324 344.745H510.175V342.089H582.431L612.188 371.851V385.213C612.638 385.148 613.092 385.115 613.546 385.115C614.985 385.116 616.406 385.436 617.706 386.054C619.005 386.672 620.151 387.571 621.06 388.687C621.969 389.803 622.619 391.107 622.961 392.504C623.304 393.902 623.331 395.359 623.041 396.769H672.35L701.328 425.751H781.994C782.331 423.318 783.578 421.103 785.484 419.554C787.39 418.005 789.812 417.237 792.262 417.406C794.712 417.574 797.007 418.667 798.683 420.462C800.359 422.258 801.291 424.623 801.291 427.079C801.291 429.535 800.359 431.9 798.683 433.696C797.007 435.491 794.712 436.584 792.262 436.752C789.812 436.921 787.39 436.153 785.484 434.604C783.578 433.055 782.331 430.841 781.994 428.407H700.217L671.239 399.427ZM613.535 387.774C612.144 387.774 610.784 388.188 609.627 388.961C608.47 389.735 607.569 390.834 607.037 392.12C606.504 393.406 606.366 394.821 606.637 396.186C606.909 397.551 607.579 398.805 608.563 399.789C609.547 400.773 610.801 401.443 612.166 401.714C613.531 401.985 614.945 401.846 616.231 401.313C617.516 400.78 618.615 399.878 619.388 398.721C620.161 397.564 620.574 396.203 620.574 394.812C620.572 392.945 619.83 391.156 618.51 389.836C617.19 388.517 615.401 387.775 613.535 387.774V387.774ZM791.582 434.121C792.974 434.122 794.335 433.709 795.493 432.936C796.65 432.162 797.553 431.063 798.086 429.777C798.619 428.491 798.759 427.075 798.487 425.709C798.216 424.344 797.546 423.089 796.562 422.104C795.577 421.12 794.323 420.449 792.958 420.177C791.593 419.905 790.177 420.044 788.891 420.577C787.605 421.11 786.506 422.012 785.732 423.17C784.959 424.328 784.546 425.689 784.546 427.081C784.548 428.947 785.29 430.736 786.609 432.056C787.928 433.375 789.716 434.118 791.582 434.121V434.121Z" fill="#FF7A00"/>
<path d="M513.156 320.572H733.595C733.931 318.139 735.178 315.925 737.084 314.376C738.989 312.827 741.411 312.06 743.861 312.229C746.31 312.397 748.604 313.489 750.28 315.285C751.955 317.08 752.887 319.444 752.887 321.9C752.887 324.356 751.955 326.72 750.28 328.515C748.604 330.31 746.31 331.402 743.861 331.571C741.411 331.739 738.989 330.972 737.084 329.423C735.178 327.875 733.931 325.661 733.595 323.228H513.156V320.572ZM743.182 328.937C744.575 328.938 745.936 328.525 747.093 327.752C748.251 326.978 749.154 325.879 749.687 324.593C750.22 323.306 750.359 321.89 750.088 320.525C749.816 319.159 749.146 317.904 748.161 316.92C747.177 315.935 745.923 315.265 744.557 314.993C743.192 314.721 741.776 314.861 740.49 315.394C739.204 315.927 738.105 316.83 737.332 317.988C736.559 319.146 736.146 320.507 736.146 321.9C736.148 323.767 736.89 325.558 738.21 326.878C739.53 328.198 741.32 328.941 743.187 328.942L743.182 328.937Z" fill="#FF7A00"/>
<path d="M489.893 233.246V230.59H533.974V222.994C531.542 222.658 529.329 221.411 527.78 219.505C526.232 217.599 525.465 215.176 525.633 212.726C525.802 210.276 526.894 207.981 528.689 206.306C530.483 204.63 532.847 203.698 535.302 203.698C537.758 203.698 540.121 204.63 541.916 206.306C543.711 207.981 544.803 210.276 544.971 212.726C545.14 215.176 544.373 217.599 542.824 219.505C541.276 221.411 539.062 222.658 536.63 222.994V233.246H489.893ZM542.347 213.391C542.347 211.999 541.934 210.637 541.161 209.48C540.387 208.322 539.288 207.42 538.002 206.887C536.716 206.354 535.3 206.215 533.935 206.487C532.57 206.759 531.316 207.429 530.332 208.414C529.347 209.399 528.677 210.653 528.406 212.019C528.135 213.385 528.274 214.8 528.807 216.087C529.34 217.373 530.243 218.472 531.4 219.245C532.558 220.019 533.919 220.431 535.311 220.431C537.176 220.427 538.962 219.683 540.279 218.364C541.597 217.044 542.337 215.256 542.338 213.391H542.347Z" fill="#FF7A00"/>
<path d="M464.268 205.876V173.055L484.464 152.854H507.552V166.394C509.985 166.73 512.199 167.978 513.748 169.884C515.296 171.79 516.064 174.214 515.895 176.664C515.727 179.115 514.635 181.41 512.84 183.086C511.044 184.762 508.68 185.695 506.224 185.695C503.769 185.695 501.404 184.762 499.609 183.086C497.814 181.41 496.722 179.115 496.553 176.664C496.385 174.214 497.152 171.79 498.701 169.884C500.249 167.978 502.464 166.73 504.896 166.394V155.511H485.564L466.924 174.155V205.876H464.268ZM499.186 175.99C499.186 177.383 499.598 178.744 500.371 179.902C501.144 181.06 502.243 181.963 503.529 182.496C504.815 183.029 506.231 183.169 507.596 182.897C508.961 182.626 510.216 181.956 511.2 180.971C512.185 179.987 512.855 178.732 513.127 177.367C513.399 176.001 513.26 174.586 512.727 173.299C512.194 172.013 511.292 170.913 510.135 170.139C508.977 169.366 507.616 168.953 506.224 168.953C504.358 168.955 502.568 169.697 501.249 171.017C499.929 172.338 499.187 174.128 499.186 175.995V175.99Z" fill="#FF7A00"/>
<path d="M112.536 525.257C114.876 525.26 117.135 526.108 118.899 527.645C120.663 529.182 121.812 531.305 122.135 533.622H150.118L241.309 442.426H303.459C303.941 440.377 305.177 438.585 306.921 437.407C308.665 436.229 310.789 435.751 312.869 436.068C314.949 436.386 316.834 437.475 318.147 439.12C319.46 440.765 320.106 442.844 319.955 444.943C319.805 447.043 318.869 449.009 317.335 450.449C315.801 451.89 313.78 452.7 311.676 452.717C309.572 452.735 307.538 451.959 305.98 450.544C304.422 449.129 303.454 447.179 303.268 445.082H242.418L151.227 536.279H122.144C121.889 538.122 121.109 539.853 119.898 541.265C118.686 542.676 117.094 543.71 115.311 544.241C113.528 544.772 111.63 544.779 109.844 544.261C108.057 543.742 106.457 542.721 105.236 541.318C104.014 539.915 103.221 538.19 102.953 536.348C102.685 534.507 102.952 532.628 103.723 530.934C104.493 529.241 105.735 527.805 107.3 526.798C108.864 525.791 110.685 525.256 112.545 525.257H112.536ZM112.536 541.99C113.928 541.99 115.289 541.577 116.446 540.804C117.604 540.03 118.506 538.931 119.039 537.644C119.571 536.358 119.711 534.943 119.439 533.577C119.168 532.212 118.497 530.957 117.513 529.973C116.529 528.988 115.275 528.318 113.909 528.046C112.544 527.775 111.129 527.914 109.843 528.447C108.557 528.98 107.458 529.882 106.684 531.039C105.911 532.197 105.498 533.558 105.498 534.951C105.5 536.817 106.242 538.607 107.562 539.926C108.881 541.246 110.67 541.988 112.536 541.99Z" fill="#FF7A00"/>
<path d="M19.041 318.282C21.3805 318.285 23.6402 319.133 25.404 320.67C27.1678 322.207 28.317 324.33 28.6399 326.648H230.525V329.304H28.6399C28.385 331.147 27.6052 332.878 26.3935 334.29C25.1819 335.702 23.5896 336.735 21.8068 337.266C20.0241 337.798 18.1261 337.804 16.3395 337.286C14.5529 336.768 12.9532 335.746 11.7314 334.343C10.5096 332.94 9.7172 331.215 9.44895 329.374C9.18071 327.533 9.44791 325.653 10.2186 323.96C10.9893 322.266 12.231 320.83 13.7954 319.824C15.3597 318.817 17.1808 318.282 19.041 318.282ZM19.041 335.013C20.4326 335.013 21.7929 334.601 22.9499 333.827C24.107 333.054 25.0088 331.955 25.5413 330.669C26.0738 329.383 26.2132 327.968 25.9417 326.603C25.6702 325.238 25.0001 323.984 24.0161 323C23.0322 322.015 21.7785 321.345 20.4136 321.074C19.0488 320.802 17.6341 320.942 16.3485 321.474C15.0628 322.007 13.964 322.909 13.1909 324.066C12.4178 325.223 12.0051 326.584 12.0051 327.976C12.0069 329.842 12.7487 331.631 14.0678 332.95C15.3869 334.27 17.1755 335.012 19.041 335.013Z" fill="#FF7A00"/>
<path d="M11.6354 282.495C13.9233 282.498 16.1366 283.31 17.8847 284.786C19.6328 286.262 20.8034 288.309 21.1899 290.564H45.3453L56.9958 302.218H230.31V304.874H55.9002L44.2497 293.221H21.2807C21.0814 295.083 20.3471 296.848 19.1664 298.302C17.9857 299.755 16.4093 300.836 14.6278 301.412C12.8462 301.989 10.9358 302.037 9.1275 301.551C7.31921 301.065 5.6905 300.065 4.43825 298.672C3.186 297.28 2.36385 295.554 2.07123 293.704C1.7786 291.854 2.02804 289.959 2.78934 288.248C3.55064 286.537 4.79119 285.083 6.36106 284.062C7.93093 283.041 9.76288 282.497 11.6354 282.495ZM11.6354 299.229C13.0276 299.229 14.3886 298.817 15.5464 298.044C16.7041 297.27 17.6066 296.171 18.1395 294.884C18.6725 293.598 18.8121 292.182 18.5406 290.816C18.2691 289.451 17.5988 288.196 16.6143 287.212C15.6299 286.227 14.3756 285.556 13.0101 285.285C11.6447 285.013 10.2293 285.153 8.94319 285.686C7.65705 286.219 6.55792 287.122 5.78473 288.28C5.01154 289.438 4.59905 290.799 4.59949 292.191C4.60359 294.056 5.34643 295.843 6.66522 297.161C7.98401 298.479 9.77122 299.22 11.6354 299.222V299.229Z" fill="#FF7A00"/>
<path d="M330.942 133.511C329.219 133.511 327.527 133.053 326.041 132.181C324.554 131.31 323.327 130.058 322.485 128.554C321.644 127.05 321.218 125.349 321.253 123.626C321.288 121.903 321.781 120.22 322.682 118.752L311.692 109.496V69.3873L291.715 49.4083C289.821 50.9786 287.402 51.7716 284.947 51.627C282.491 51.4823 280.182 50.4108 278.486 48.629C276.79 46.8472 275.833 44.4878 275.809 42.0276C275.784 39.5673 276.695 37.1896 278.356 35.3747C280.016 33.5599 282.304 32.4431 284.756 32.2502C287.208 32.0573 289.642 32.8025 291.567 34.3353C293.491 35.8681 294.761 38.0742 295.122 40.508C295.483 42.9417 294.907 45.4217 293.51 47.4469L314.347 68.2872V108.252L324.367 116.686C325.525 115.615 326.928 114.843 328.452 114.438C329.976 114.032 331.577 114.004 333.114 114.358C334.652 114.711 336.08 115.435 337.274 116.466C338.468 117.497 339.393 118.804 339.968 120.273C340.542 121.742 340.749 123.33 340.571 124.898C340.393 126.466 339.835 127.966 338.945 129.269C338.056 130.572 336.862 131.638 335.466 132.375C334.071 133.111 332.518 133.496 330.94 133.495L330.942 133.511ZM285.535 34.9061C284.143 34.9056 282.782 35.3181 281.625 36.0914C280.467 36.8647 279.565 37.9639 279.032 39.2502C278.498 40.5365 278.359 41.952 278.63 43.3178C278.901 44.6835 279.572 45.938 280.556 46.9228C281.54 47.9075 282.794 48.5783 284.159 48.8501C285.525 49.1219 286.94 48.9826 288.226 48.4498C289.512 47.917 290.612 47.0148 291.385 45.8571C292.158 44.6994 292.571 43.3381 292.571 41.9457C292.571 40.0785 291.83 38.2875 290.511 36.9663C289.192 35.6451 287.402 34.9017 285.535 34.8994V34.9061ZM330.942 116.779C329.551 116.78 328.191 117.193 327.034 117.966C325.877 118.74 324.976 119.839 324.444 121.125C323.911 122.411 323.772 123.826 324.044 125.191C324.316 126.556 324.986 127.81 325.97 128.794C326.954 129.778 328.208 130.448 329.573 130.719C330.937 130.991 332.352 130.851 333.638 130.318C334.923 129.786 336.022 128.884 336.795 127.726C337.568 126.569 337.98 125.209 337.98 123.817C337.98 121.949 337.239 120.158 335.919 118.837C334.599 117.516 332.809 116.774 330.942 116.773V116.779Z" fill="#FF7A00"/>
<path d="M20.2982 245.027H48.2448L77.8115 215.445H120.914V244.74C123.34 245.125 125.53 246.417 127.04 248.354C128.551 250.291 129.27 252.73 129.052 255.177C128.835 257.625 127.697 259.898 125.868 261.538C124.039 263.179 121.656 264.064 119.2 264.015C116.745 263.966 114.399 262.986 112.637 261.274C110.876 259.562 109.829 257.244 109.71 254.79C109.59 252.336 110.406 249.928 111.993 248.053C113.58 246.178 115.819 244.974 118.258 244.687V218.102H78.9181L49.3426 247.684H20.2672C19.8943 250.114 18.6133 252.311 16.6831 253.833C14.7528 255.354 12.3172 256.086 9.86821 255.88C7.41926 255.675 5.13957 254.548 3.48963 252.726C1.83969 250.904 0.942505 248.524 0.979364 246.066C1.01622 243.608 1.98433 241.256 3.68815 239.485C5.39198 237.713 7.70453 236.655 10.1585 236.523C12.6125 236.391 15.0251 237.196 16.9089 238.774C18.7926 240.353 20.0071 242.588 20.307 245.027H20.2982ZM112.369 254.312C112.369 255.704 112.781 257.066 113.554 258.224C114.327 259.382 115.426 260.284 116.712 260.817C117.998 261.351 119.413 261.49 120.779 261.219C122.144 260.947 123.399 260.277 124.383 259.293C125.368 258.308 126.038 257.054 126.31 255.688C126.582 254.323 126.442 252.907 125.91 251.621C125.377 250.334 124.475 249.235 123.318 248.461C122.16 247.687 120.799 247.274 119.407 247.274C117.54 247.275 115.75 248.016 114.43 249.336C113.109 250.655 112.365 252.445 112.362 254.312H112.369ZM10.6861 239.165C9.2945 239.165 7.93417 239.578 6.77713 240.351C5.62008 241.125 4.71828 242.224 4.18575 243.51C3.65322 244.796 3.51388 246.211 3.78536 247.576C4.05684 248.941 4.72694 250.195 5.71092 251.179C6.69491 252.163 7.94861 252.834 9.31344 253.105C10.6783 253.377 12.093 253.237 13.3786 252.705C14.6642 252.172 15.7631 251.27 16.5362 250.113C17.3093 248.955 17.722 247.595 17.722 246.203C17.7202 244.336 16.9774 242.546 15.6569 241.226C14.3364 239.907 12.5461 239.165 10.6794 239.165H10.6861Z" fill="#FF7A00"/>
<path d="M135.612 99.1762H268.961V125.352L305.107 161.509V203.557H302.451V162.609L266.305 126.454V101.833H135.612C135.276 104.265 134.029 106.48 132.124 108.028C130.218 109.577 127.796 110.344 125.347 110.176C122.897 110.007 120.603 108.915 118.928 107.12C117.252 105.324 116.32 102.96 116.32 100.504C116.32 98.0487 117.252 95.6845 118.928 93.8893C120.603 92.0942 122.897 91.002 125.347 90.8333C127.796 90.6647 130.218 91.4321 132.124 92.9807C134.029 94.5293 135.276 96.7436 135.612 99.1762ZM126.014 93.4669C124.622 93.4669 123.262 93.8797 122.105 94.653C120.948 95.4263 120.046 96.5254 119.513 97.8113C118.981 99.0972 118.841 100.512 119.113 101.877C119.384 103.243 120.055 104.497 121.039 105.481C122.023 106.465 123.276 107.135 124.641 107.407C126.006 107.678 127.421 107.539 128.706 107.006C129.992 106.474 131.091 105.572 131.864 104.414C132.637 103.257 133.05 101.896 133.05 100.504C133.047 98.6398 132.306 96.8522 130.989 95.5331C129.671 94.214 127.884 93.471 126.02 93.4669H126.014Z" fill="#FF7A00"/>
<path d="M258.943 81.9296C256.707 81.9264 254.541 81.1516 252.809 79.7359C251.078 78.3203 249.889 76.3506 249.441 74.1593H215.459V91.2915H229.069V115.2H159.166V105.772H99.9436L65.5941 140.133H34.4803C34.2209 142.577 33.0441 144.83 31.1877 146.439C29.3313 148.048 26.9336 148.892 24.4789 148.801C22.0243 148.71 19.6957 147.69 17.9635 145.948C16.2313 144.206 15.2247 141.872 15.147 139.416C15.0692 136.961 15.9262 134.567 17.5447 132.719C19.1632 130.871 21.4226 129.706 23.8666 129.46C26.3105 129.213 28.7569 129.904 30.7113 131.392C32.6658 132.88 33.9828 135.055 34.3962 137.477H64.4963L98.8502 103.115H159.168V91.296H173.372V72.7227L155.928 55.2738H90.5329C90.2727 57.7185 89.0941 59.9731 87.2353 61.5816C85.3766 63.1901 82.9764 64.0326 80.5203 63.9386C78.0642 63.8446 75.7355 62.8211 74.0051 61.0752C72.2747 59.3293 71.2718 56.9912 71.1991 54.5338C71.1265 52.0765 71.9897 49.6832 73.6139 47.8381C75.2382 45.993 77.5024 44.8337 79.9486 44.5948C82.3949 44.3558 84.8406 45.055 86.7911 46.5509C88.7416 48.0468 90.0513 50.2278 90.4554 52.6528V52.6173H157.025L176.026 71.6224V91.296H193.088V60.3234C190.642 60.1366 188.358 59.0282 186.697 57.2222C185.036 55.4162 184.123 53.047 184.14 50.5933C184.158 48.1396 185.107 45.7841 186.794 44.0025C188.481 42.221 190.781 41.1462 193.229 40.9952C195.678 40.8441 198.092 41.6282 199.986 43.1889C201.879 44.7496 203.109 46.9707 203.428 49.4036C203.747 51.8366 203.132 54.3001 201.705 56.2965C200.279 58.2929 198.148 59.6736 195.744 60.1596V91.296H212.803V71.5073H249.28C249.422 69.6265 250.11 67.8283 251.259 66.3328C252.409 64.8374 253.969 63.7096 255.749 63.0879C257.529 62.4661 259.452 62.3774 261.282 62.8325C263.112 63.2875 264.77 64.2667 266.052 65.6499C267.334 67.0331 268.184 68.7603 268.499 70.6199C268.815 72.4795 268.58 74.3906 267.826 76.1192C267.071 77.8477 265.829 79.3185 264.251 80.3513C262.673 81.3842 260.829 81.9342 258.943 81.934V81.9296ZM24.8416 132.067C23.45 132.067 22.0897 132.479 20.9327 133.253C19.7756 134.026 18.8738 135.125 18.3413 136.411C17.8088 137.697 17.6694 139.112 17.9409 140.477C18.2124 141.842 18.8825 143.096 19.8665 144.08C20.8505 145.065 22.1041 145.735 23.469 146.006C24.8338 146.278 26.2485 146.138 27.5341 145.606C28.8198 145.073 29.9187 144.171 30.6918 143.014C31.4649 141.857 31.8775 140.496 31.8775 139.104C31.8758 137.238 31.1339 135.449 29.8148 134.13C28.4957 132.81 26.7071 132.068 24.8416 132.067ZM80.8964 47.2048C79.5043 47.2044 78.1434 47.6169 76.9857 48.3901C75.828 49.1634 74.9255 50.2626 74.3925 51.5489C73.8594 52.8352 73.7197 54.2508 73.991 55.6165C74.2624 56.9822 74.9325 58.2368 75.9167 59.2215C76.9009 60.2062 78.155 60.877 79.5203 61.1488C80.8856 61.4206 82.3009 61.2813 83.587 60.7485C84.8732 60.2158 85.9726 59.3135 86.746 58.1558C87.5195 56.9981 87.9323 55.6369 87.9323 54.2445C87.93 52.3785 87.188 50.5896 85.8691 49.27C84.5502 47.9504 82.7619 47.2077 80.8964 47.2048ZM200.854 50.6583C200.854 49.2664 200.441 47.9057 199.668 46.7484C198.895 45.5911 197.796 44.689 196.511 44.1563C195.225 43.6237 193.81 43.4844 192.446 43.756C191.081 44.0275 189.827 44.6978 188.843 45.682C187.859 46.6662 187.189 47.9201 186.918 49.2853C186.646 50.6504 186.785 52.0654 187.318 53.3513C187.85 54.6372 188.752 55.7364 189.909 56.5097C191.066 57.2829 192.427 57.6957 193.818 57.6957C195.684 57.6939 197.472 56.9519 198.791 55.6325C200.111 54.3131 200.852 52.5242 200.854 50.6583ZM258.943 65.2003C257.551 65.1999 256.19 65.6124 255.032 66.3858C253.874 67.1592 252.972 68.2586 252.439 69.545C251.906 70.8315 251.766 72.2471 252.038 73.6129C252.309 74.9787 252.98 76.2332 253.964 77.2178C254.948 78.2025 256.203 78.873 257.568 79.1446C258.934 79.4161 260.349 79.2765 261.635 78.7434C262.921 78.2103 264.02 77.3078 264.794 76.1497C265.567 74.9917 265.979 73.6304 265.979 72.2379C265.976 70.3721 265.234 68.5834 263.915 67.2642C262.596 65.9449 260.808 65.2027 258.943 65.2003Z" fill="#FF7A00"/>
<path d="M182.819 162.586C184.057 162.585 185.283 162.824 186.431 163.288L203.511 129.418H278.068L317.979 169.34V182.435H315.323V170.436L276.968 132.07H205.144L188.737 164.612C190.551 166.016 191.809 168.018 192.285 170.263C192.761 172.507 192.425 174.848 191.337 176.868C190.249 178.888 188.48 180.456 186.344 181.293C184.209 182.13 181.845 182.182 179.675 181.439C177.505 180.696 175.668 179.207 174.493 177.237C173.318 175.266 172.88 172.943 173.257 170.68C173.635 168.416 174.803 166.361 176.554 164.879C178.305 163.396 180.525 162.584 182.819 162.586V162.586ZM182.819 179.318C184.21 179.317 185.571 178.904 186.727 178.131C187.884 177.357 188.785 176.258 189.318 174.972C189.85 173.686 189.989 172.271 189.717 170.906C189.445 169.541 188.775 168.287 187.791 167.303C186.807 166.319 185.553 165.649 184.189 165.378C182.824 165.106 181.409 165.246 180.124 165.779C178.838 166.311 177.739 167.213 176.966 168.37C176.193 169.528 175.781 170.888 175.781 172.28C175.783 174.146 176.525 175.936 177.844 177.255C179.164 178.575 180.953 179.316 182.819 179.318V179.318Z" fill="#FF7A00"/>
<path d="M109.461 502.129C111.872 502.133 114.197 503.034 115.98 504.657C117.764 506.281 118.88 508.51 119.11 510.911H193.011C193.239 508.463 194.389 506.194 196.226 504.561C198.064 502.927 200.452 502.053 202.91 502.113C205.367 502.174 207.71 503.165 209.465 504.886C211.22 506.608 212.256 508.931 212.365 511.387C212.473 513.843 211.645 516.249 210.049 518.119C208.453 519.988 206.206 521.182 203.764 521.459C201.321 521.736 198.865 521.075 196.891 519.61C194.917 518.146 193.572 515.986 193.128 513.568H118.978C118.646 515.38 117.805 517.061 116.553 518.413C115.3 519.764 113.689 520.731 111.907 521.199C110.125 521.667 108.247 521.618 106.492 521.057C104.738 520.496 103.179 519.446 101.999 518.03C100.82 516.615 100.068 514.892 99.832 513.065C99.5961 511.237 99.8858 509.38 100.667 507.712C101.449 506.043 102.689 504.632 104.244 503.643C105.799 502.654 107.603 502.129 109.445 502.129H109.461ZM202.667 518.863C204.059 518.863 205.42 518.45 206.577 517.677C207.735 516.903 208.637 515.803 209.169 514.517C209.702 513.23 209.841 511.815 209.57 510.449C209.298 509.084 208.627 507.829 207.643 506.845C206.658 505.86 205.404 505.19 204.039 504.919C202.673 504.647 201.258 504.787 199.972 505.32C198.686 505.853 197.587 506.756 196.814 507.914C196.041 509.072 195.628 510.433 195.629 511.826C195.631 513.691 196.372 515.479 197.69 516.798C199.008 518.118 200.796 518.86 202.66 518.863H202.667ZM109.461 518.863C110.853 518.864 112.214 518.451 113.372 517.678C114.529 516.904 115.432 515.805 115.965 514.518C116.498 513.232 116.637 511.816 116.366 510.451C116.094 509.085 115.424 507.83 114.44 506.846C113.455 505.861 112.201 505.19 110.835 504.919C109.47 504.647 108.055 504.787 106.768 505.32C105.482 505.853 104.383 506.756 103.61 507.914C102.837 509.072 102.424 510.433 102.425 511.826C102.427 513.691 103.169 515.48 104.488 516.799C105.807 518.119 107.595 518.861 109.461 518.863V518.863Z" fill="#FF7A00"/>
<path d="M184.87 538.148C187.074 538.152 189.21 538.905 190.929 540.284C192.648 541.662 193.847 543.584 194.33 545.735H225.758C226.444 543.381 227.996 541.376 230.102 540.122C232.207 538.868 234.71 538.458 237.105 538.976C239.5 539.494 241.61 540.901 243.01 542.913C244.41 544.925 244.995 547.393 244.648 549.82C244.3 552.246 243.047 554.451 241.139 555.99C239.232 557.528 236.812 558.287 234.368 558.112C231.923 557.937 229.636 556.843 227.966 555.048C226.297 553.254 225.369 550.893 225.371 548.442C225.371 548.424 225.371 548.409 225.371 548.391H194.547C194.439 550.282 193.781 552.1 192.652 553.621C191.523 555.141 189.974 556.298 188.196 556.948C186.417 557.597 184.487 557.712 182.644 557.277C180.802 556.842 179.126 555.877 177.826 554.5C176.526 553.123 175.657 551.396 175.327 549.531C174.997 547.666 175.221 545.745 175.97 544.006C176.719 542.267 177.961 540.785 179.543 539.744C181.125 538.703 182.977 538.148 184.87 538.148V538.148ZM235.058 555.48C236.45 555.48 237.811 555.067 238.968 554.293C240.126 553.519 241.028 552.42 241.561 551.133C242.093 549.847 242.232 548.431 241.961 547.066C241.689 545.7 241.018 544.446 240.034 543.461C239.049 542.477 237.795 541.807 236.43 541.535C235.064 541.264 233.649 541.403 232.363 541.937C231.077 542.47 229.978 543.372 229.205 544.53C228.432 545.688 228.019 547.05 228.02 548.442C228.022 550.308 228.764 552.098 230.083 553.417C231.403 554.737 233.192 555.478 235.058 555.48V555.48ZM184.87 554.882C186.263 554.882 187.623 554.469 188.781 553.695C189.938 552.922 190.84 551.822 191.373 550.536C191.906 549.249 192.045 547.834 191.773 546.468C191.501 545.102 190.831 543.848 189.846 542.863C188.862 541.879 187.608 541.209 186.242 540.937C184.877 540.666 183.462 540.806 182.176 541.339C180.89 541.872 179.79 542.775 179.017 543.933C178.244 545.091 177.832 546.452 177.832 547.844C177.834 549.711 178.576 551.5 179.896 552.819C181.215 554.139 183.005 554.881 184.87 554.882V554.882Z" fill="#FF7A00"/>
<path d="M298.414 584.581C300.858 584.584 303.21 585.51 305.001 587.172C306.792 588.834 307.891 591.11 308.077 593.547H329.53L367.587 555.47V537.406C364.871 537.068 362.386 535.707 360.639 533.6C358.891 531.493 358.012 528.799 358.182 526.066C358.351 523.334 359.555 520.769 361.55 518.894C363.544 517.019 366.178 515.975 368.915 515.975C371.652 515.975 374.286 517.019 376.28 518.894C378.275 520.769 379.479 523.334 379.649 526.066C379.818 528.799 378.939 531.493 377.192 533.6C375.444 535.707 372.959 537.068 370.243 537.406V556.579L331.02 595.814L330.63 596.203H307.973V595.869C307.669 597.693 306.85 599.391 305.612 600.765C304.374 602.138 302.769 603.128 300.986 603.619C299.204 604.11 297.318 604.081 295.552 603.535C293.786 602.989 292.213 601.949 291.018 600.538C289.823 599.127 289.057 597.403 288.809 595.571C288.562 593.738 288.844 591.873 289.621 590.196C290.399 588.518 291.64 587.098 293.198 586.103C294.756 585.108 296.566 584.579 298.414 584.579V584.581ZM298.414 601.315C299.807 601.315 301.168 600.903 302.325 600.129C303.483 599.356 304.386 598.256 304.919 596.97C305.452 595.684 305.591 594.268 305.32 592.902C305.048 591.536 304.378 590.282 303.393 589.297C302.409 588.313 301.155 587.642 299.789 587.37C298.424 587.099 297.008 587.238 295.722 587.772C294.436 588.305 293.337 589.207 292.564 590.365C291.791 591.523 291.378 592.885 291.379 594.277C291.38 596.143 292.122 597.932 293.441 599.252C294.76 600.571 296.549 601.313 298.414 601.315Z" fill="#FF7A00"/>
<path d="M227.29 585.96C229.801 585.958 232.213 586.935 234.016 588.683L260.641 562.054V553.458C258.197 553.241 255.926 552.104 254.288 550.277C252.649 548.45 251.764 546.069 251.813 543.615C251.861 541.161 252.839 538.817 254.548 537.056C256.258 535.295 258.571 534.249 261.022 534.128C263.473 534.008 265.879 534.822 267.753 536.407C269.626 537.992 270.829 540.229 271.118 542.666C271.407 545.103 270.76 547.56 269.309 549.539C267.857 551.517 265.708 552.872 263.297 553.327V563.154L235.669 590.788C236.74 592.635 237.172 594.783 236.897 596.9C236.623 599.016 235.657 600.983 234.15 602.495C232.644 604.006 230.68 604.978 228.565 605.259C226.45 605.54 224.301 605.115 222.451 604.05C220.602 602.985 219.157 601.338 218.339 599.367C217.521 597.396 217.376 595.209 217.928 593.147C218.479 591.085 219.696 589.263 221.389 587.964C223.082 586.664 225.156 585.96 227.29 585.96V585.96ZM268.529 543.808C268.53 542.416 268.117 541.055 267.344 539.897C266.571 538.739 265.472 537.836 264.186 537.303C262.9 536.77 261.485 536.63 260.12 536.901C258.754 537.173 257.5 537.843 256.515 538.827C255.531 539.812 254.86 541.066 254.589 542.432C254.317 543.797 254.456 545.213 254.989 546.5C255.521 547.786 256.423 548.886 257.581 549.659C258.738 550.433 260.099 550.846 261.491 550.846C263.357 550.843 265.145 550.101 266.465 548.782C267.784 547.463 268.526 545.674 268.529 543.808ZM227.29 602.694C228.682 602.694 230.042 602.281 231.199 601.508C232.356 600.735 233.258 599.636 233.79 598.35C234.323 597.064 234.462 595.649 234.191 594.283C233.919 592.918 233.249 591.664 232.265 590.68C231.281 589.696 230.028 589.026 228.663 588.754C227.298 588.483 225.883 588.622 224.598 589.155C223.312 589.687 222.213 590.589 221.44 591.747C220.667 592.904 220.254 594.265 220.254 595.656C220.257 597.522 220.999 599.31 222.318 600.629C223.637 601.947 225.425 602.689 227.29 602.692V602.694Z" fill="#FF7A00"/>
<path d="M416.282 569.105V449.027H418.938V569.105C421.371 569.442 423.585 570.689 425.134 572.595C426.682 574.502 427.45 576.925 427.281 579.376C427.113 581.826 426.021 584.122 424.225 585.798C422.43 587.474 420.066 588.406 417.61 588.406C415.154 588.406 412.79 587.474 410.995 585.798C409.2 584.122 408.108 581.826 407.939 579.376C407.771 576.925 408.538 574.502 410.087 572.595C411.635 570.689 413.85 569.442 416.282 569.105V569.105ZM417.61 585.746C419.002 585.746 420.363 585.333 421.52 584.56C422.678 583.786 423.58 582.687 424.113 581.4C424.645 580.114 424.785 578.698 424.513 577.333C424.242 575.967 423.571 574.713 422.587 573.728C421.603 572.744 420.349 572.073 418.983 571.802C417.618 571.53 416.203 571.67 414.917 572.202C413.631 572.735 412.532 573.637 411.758 574.795C410.985 575.953 410.572 577.314 410.572 578.706C410.574 580.573 411.316 582.362 412.635 583.682C413.955 585.002 415.744 585.744 417.61 585.746Z" fill="#FF7A00"/>
<path d="M437.318 490.304C439.774 490.303 442.139 491.234 443.934 492.91C445.73 494.586 446.823 496.882 446.991 499.332C447.16 501.783 446.392 504.207 444.843 506.113C443.294 508.019 441.079 509.266 438.646 509.601V553.237L459.559 574.152V614.699C461.991 615.035 464.205 616.283 465.754 618.189C467.303 620.096 468.07 622.519 467.902 624.969C467.733 627.42 466.641 629.715 464.846 631.391C463.051 633.068 460.686 634 458.231 634C455.775 634 453.411 633.068 451.615 631.391C449.82 629.715 448.728 627.42 448.559 624.969C448.391 622.519 449.158 620.096 450.707 618.189C452.256 616.283 454.47 615.035 456.903 614.699V575.25L435.99 554.343V509.61C433.557 509.275 431.342 508.028 429.792 506.122C428.243 504.216 427.475 501.792 427.644 499.341C427.813 496.89 428.905 494.595 430.701 492.919C432.497 491.243 434.862 490.312 437.318 490.313V490.304ZM451.186 624.298C451.186 625.69 451.599 627.051 452.372 628.209C453.145 629.366 454.245 630.269 455.531 630.802C456.817 631.334 458.232 631.474 459.597 631.202C460.962 630.931 462.216 630.26 463.201 629.276C464.185 628.291 464.855 627.037 465.127 625.671C465.398 624.306 465.259 622.89 464.726 621.604C464.194 620.317 463.292 619.218 462.134 618.444C460.977 617.671 459.616 617.258 458.224 617.258C456.358 617.26 454.569 618.002 453.249 619.322C451.93 620.642 451.188 622.431 451.186 624.298V624.298ZM437.311 507.033C438.703 507.034 440.064 506.621 441.222 505.848C442.38 505.075 443.282 503.976 443.815 502.689C444.348 501.403 444.488 499.987 444.216 498.622C443.945 497.256 443.275 496.001 442.291 495.017C441.307 494.032 440.052 493.361 438.687 493.089C437.322 492.818 435.907 492.957 434.62 493.49C433.334 494.022 432.235 494.925 431.461 496.082C430.688 497.24 430.275 498.601 430.275 499.994C430.276 501.862 431.019 503.653 432.339 504.973C433.66 506.294 435.45 507.037 437.318 507.038L437.311 507.033Z" fill="#FF7A00"/>
<path d="M387.001 588.307V568.328L394.469 560.859V455.042H397.125V561.966L389.657 569.428V588.214C392.1 588.473 394.353 589.651 395.961 591.507C397.57 593.364 398.414 595.763 398.323 598.218C398.232 600.673 397.213 603.002 395.471 604.735C393.729 606.467 391.395 607.474 388.94 607.552C386.485 607.63 384.092 606.772 382.244 605.154C380.397 603.535 379.232 601.275 378.986 598.83C378.74 596.386 379.43 593.939 380.918 591.984C382.406 590.029 384.58 588.712 387.001 588.298V588.307ZM388.628 604.91C390.02 604.911 391.381 604.498 392.539 603.725C393.697 602.951 394.599 601.852 395.132 600.566C395.665 599.28 395.805 597.864 395.533 596.498C395.262 595.133 394.592 593.878 393.608 592.893C392.624 591.909 391.369 591.238 390.004 590.966C388.639 590.694 387.224 590.834 385.937 591.366C384.651 591.899 383.552 592.801 382.778 593.959C382.005 595.117 381.592 596.478 381.592 597.87C381.596 599.736 382.34 601.523 383.659 602.841C384.979 604.159 386.768 604.9 388.632 604.901L388.628 604.91Z" fill="#FF7A00"/>
<path d="M612.343 350.723C610.547 350.724 608.787 350.225 607.258 349.284C605.729 348.342 604.491 346.994 603.683 345.39C602.875 343.786 602.528 341.989 602.681 340.2C602.834 338.41 603.482 336.699 604.55 335.255C605.619 333.812 607.068 332.694 608.735 332.026C610.402 331.358 612.221 331.167 613.99 331.472C615.76 331.778 617.41 332.57 618.756 333.758C620.102 334.947 621.091 336.486 621.614 338.204H699.824L733.644 372.033C735.784 370.823 738.302 370.47 740.692 371.045C743.081 371.621 745.163 373.081 746.518 375.132C747.872 377.184 748.399 379.672 747.99 382.096C747.582 384.52 746.269 386.699 744.317 388.193C742.365 389.687 739.92 390.384 737.474 390.144C735.028 389.904 732.764 388.746 731.139 386.901C729.514 385.057 728.649 382.665 728.719 380.207C728.789 377.75 729.788 375.411 731.515 373.662L698.723 340.861H622.03C622.03 340.916 622.03 340.972 622.03 341.027C622.027 343.596 621.006 346.06 619.19 347.878C617.374 349.695 614.912 350.719 612.343 350.723V350.723ZM738.409 387.509C739.801 387.509 741.162 387.096 742.319 386.323C743.477 385.549 744.379 384.45 744.912 383.163C745.444 381.877 745.584 380.462 745.312 379.096C745.04 377.73 744.37 376.476 743.386 375.491C742.402 374.507 741.148 373.836 739.782 373.565C738.417 373.293 737.002 373.433 735.716 373.965C734.43 374.498 733.33 375.401 732.557 376.558C731.784 377.716 731.371 379.077 731.371 380.469C731.373 382.336 732.115 384.125 733.434 385.445C734.754 386.765 736.543 387.507 738.409 387.509ZM612.343 333.989C610.951 333.989 609.59 334.402 608.432 335.175C607.274 335.948 606.372 337.048 605.839 338.334C605.306 339.621 605.166 341.036 605.438 342.402C605.709 343.768 606.38 345.022 607.364 346.007C608.348 346.992 609.603 347.662 610.968 347.934C612.334 348.205 613.749 348.066 615.035 347.533C616.321 347 617.42 346.097 618.194 344.939C618.967 343.781 619.379 342.419 619.379 341.027C619.376 339.161 618.634 337.373 617.315 336.053C615.996 334.734 614.208 333.992 612.343 333.989Z" fill="#FF7A00"/>
<path d="M698.274 301.717H513.758V299.061H698.438C698.924 296.652 700.306 294.517 702.305 293.087C704.304 291.658 706.771 291.041 709.208 291.36C711.644 291.68 713.869 292.912 715.432 294.809C716.995 296.705 717.78 299.125 717.629 301.578C717.478 304.031 716.401 306.336 714.617 308.026C712.833 309.716 710.474 310.666 708.017 310.683C705.559 310.701 703.187 309.785 701.378 308.121C699.57 306.457 698.461 304.168 698.274 301.717V301.717ZM714.973 300.987C714.972 299.595 714.559 298.235 713.786 297.078C713.013 295.921 711.914 295.019 710.628 294.487C709.342 293.954 707.928 293.815 706.563 294.087C705.198 294.359 703.945 295.029 702.961 296.014C701.977 296.998 701.307 298.252 701.036 299.617C700.765 300.982 700.904 302.397 701.437 303.683C701.969 304.969 702.871 306.068 704.028 306.841C705.185 307.614 706.546 308.027 707.937 308.027C709.803 308.025 711.592 307.283 712.911 305.963C714.23 304.643 714.972 302.853 714.973 300.987V300.987Z" fill="#FF7A00"/>
<path d="M794.681 278.898H652.414V287.693H591.682V278.898H510.111V276.241H591.682V263.871H652.414V276.241H794.838C795.322 273.838 796.699 271.708 798.692 270.281C800.685 268.854 803.145 268.237 805.576 268.554C808.006 268.871 810.225 270.099 811.786 271.99C813.346 273.88 814.131 276.292 813.982 278.739C813.833 281.186 812.762 283.485 810.984 285.173C809.206 286.86 806.854 287.81 804.403 287.83C801.953 287.85 799.585 286.939 797.78 285.281C795.975 283.623 794.865 281.342 794.676 278.898H794.681ZM804.313 285.174C805.699 285.174 807.054 284.763 808.206 283.992C809.358 283.222 810.256 282.128 810.787 280.847C811.317 279.566 811.456 278.157 811.185 276.798C810.915 275.438 810.248 274.189 809.268 273.209C808.288 272.229 807.039 271.561 805.68 271.291C804.321 271.02 802.912 271.159 801.631 271.69C800.351 272.22 799.257 273.119 798.487 274.271C797.717 275.424 797.306 276.779 797.306 278.165C797.307 280.022 798.046 281.803 799.358 283.117C800.671 284.431 802.451 285.171 804.308 285.174H804.313Z" fill="#FF7A00"/>
<path d="M722.657 252.052C720.214 252.049 717.862 251.125 716.071 249.463C714.28 247.801 713.181 245.525 712.994 243.089H649.813L608.928 202.194C606.687 203.206 604.145 203.33 601.816 202.542C599.487 201.754 597.544 200.112 596.377 197.947C595.211 195.782 594.908 193.255 595.531 190.876C596.153 188.496 597.655 186.442 599.732 185.126C601.809 183.81 604.308 183.331 606.724 183.785C609.141 184.239 611.295 185.593 612.754 187.573C614.212 189.553 614.865 192.013 614.582 194.456C614.299 196.899 613.1 199.143 611.227 200.737L650.913 240.434H713.105V240.768C713.409 238.945 714.229 237.246 715.467 235.873C716.705 234.5 718.309 233.509 720.092 233.018C721.874 232.528 723.759 232.557 725.525 233.103C727.292 233.648 728.865 234.688 730.06 236.099C731.255 237.51 732.021 239.233 732.269 241.065C732.517 242.898 732.235 244.763 731.458 246.44C730.681 248.118 729.44 249.538 727.882 250.534C726.325 251.529 724.515 252.058 722.666 252.059L722.657 252.052ZM611.995 193.355C611.995 191.963 611.583 190.602 610.81 189.445C610.036 188.287 608.938 187.385 607.652 186.853C606.366 186.32 604.952 186.181 603.587 186.452C602.222 186.724 600.968 187.394 599.984 188.378C599 189.362 598.33 190.616 598.059 191.982C597.787 193.347 597.927 194.762 598.459 196.048C598.992 197.334 599.893 198.433 601.05 199.206C602.207 199.979 603.568 200.392 604.959 200.392C606.824 200.389 608.611 199.647 609.93 198.327C611.248 197.008 611.989 195.22 611.991 193.355H611.995ZM722.657 235.32C721.266 235.32 719.905 235.733 718.748 236.507C717.591 237.28 716.69 238.379 716.157 239.665C715.625 240.951 715.485 242.366 715.757 243.731C716.028 245.096 716.698 246.35 717.682 247.334C718.666 248.318 719.92 248.989 721.285 249.26C722.649 249.532 724.064 249.392 725.35 248.86C726.636 248.327 727.734 247.425 728.507 246.268C729.281 245.111 729.693 243.75 729.693 242.358C729.691 240.492 728.949 238.704 727.63 237.384C726.311 236.065 724.523 235.323 722.657 235.32V235.32Z" fill="#FF7A00"/>
<path d="M578.744 108.407V200.499C580.705 200.816 582.49 201.822 583.778 203.335C585.066 204.849 585.774 206.772 585.774 208.759C585.774 210.747 585.066 212.67 583.778 214.183C582.49 215.697 580.705 216.703 578.744 217.02V251.333H500.342V248.677H576.088V217.02C574.126 216.703 572.341 215.697 571.053 214.183C569.765 212.67 569.058 210.747 569.058 208.759C569.058 206.772 569.765 204.849 571.053 203.335C572.341 201.822 574.126 200.816 576.088 200.499V108.407C573.656 108.07 571.442 106.823 569.894 104.917C568.346 103.011 567.578 100.589 567.747 98.1386C567.915 95.6886 569.007 93.394 570.802 91.7182C572.597 90.0424 574.96 89.1103 577.416 89.1103C579.871 89.1103 582.235 90.0424 584.029 91.7182C585.824 93.394 586.916 95.6886 587.085 98.1386C587.253 100.589 586.486 103.011 584.938 104.917C583.389 106.823 581.176 108.07 578.744 108.407V108.407ZM577.416 91.7662C576.024 91.7658 574.663 92.1782 573.505 92.9514C572.347 93.7247 571.445 94.824 570.912 96.1103C570.379 97.3966 570.239 98.8122 570.51 100.178C570.782 101.544 571.452 102.798 572.436 103.783C573.42 104.768 574.674 105.438 576.04 105.71C577.405 105.982 578.82 105.843 580.106 105.31C581.393 104.777 582.492 103.875 583.265 102.717C584.039 101.559 584.452 100.198 584.452 98.8059C584.45 96.9397 583.708 95.1505 582.389 93.8308C581.07 92.511 579.281 91.7685 577.416 91.7662V91.7662Z" fill="#FF7A00"/>
<path d="M539.389 173.723C536.933 173.724 534.568 172.793 532.773 171.117C530.977 169.441 529.884 167.145 529.716 164.695C529.547 162.244 530.315 159.82 531.864 157.914C533.413 156.008 535.628 154.761 538.061 154.426V142.471L520.318 124.724H489.155L451.694 162.187V194.508H449.038V161.08L488.055 122.056H521.418L540.717 141.36V154.421C543.15 154.757 545.365 156.003 546.914 157.91C548.464 159.816 549.232 162.239 549.063 164.69C548.894 167.141 547.802 169.436 546.006 171.112C544.21 172.788 541.845 173.72 539.389 173.718V173.723ZM539.389 156.989C537.997 156.989 536.636 157.401 535.478 158.175C534.321 158.948 533.418 160.048 532.885 161.334C532.352 162.62 532.213 164.036 532.484 165.402C532.756 166.768 533.426 168.022 534.41 169.007C535.395 169.991 536.649 170.662 538.015 170.933C539.38 171.205 540.795 171.065 542.081 170.532C543.368 169.999 544.467 169.097 545.24 167.939C546.013 166.781 546.426 165.419 546.425 164.027C546.423 162.161 545.682 160.372 544.362 159.052C543.043 157.733 541.255 156.991 539.389 156.989Z" fill="#FF7A00"/>
<path d="M381.634 57.3241V172.029H378.979V57.3285C376.547 56.992 374.333 55.7448 372.785 53.8388C371.236 51.9328 370.469 49.5102 370.638 47.0602C370.806 44.6102 371.898 42.3156 373.693 40.6398C375.488 38.964 377.851 38.0319 380.307 38.0319C382.762 38.0319 385.125 38.964 386.92 40.6398C388.715 42.3156 389.807 44.6102 389.975 47.0602C390.144 49.5102 389.377 51.9328 387.829 53.8388C386.28 55.7448 384.067 56.992 381.634 57.3285V57.3241ZM380.307 40.6855C378.914 40.6851 377.553 41.0976 376.396 41.871C375.238 42.6443 374.335 43.7438 373.802 45.0302C373.269 46.3166 373.13 47.7323 373.401 49.0981C373.673 50.4638 374.343 51.7184 375.328 52.7031C376.312 53.6877 377.566 54.3583 378.932 54.6298C380.297 54.9014 381.713 54.7618 382.999 54.2287C384.285 53.6956 385.384 52.7929 386.157 51.6349C386.93 50.4769 387.343 49.1155 387.342 47.723C387.34 45.8573 386.598 44.0686 385.279 42.7493C383.96 41.43 382.172 40.6878 380.307 40.6855V40.6855Z" fill="#FF7A00"/>
<path d="M361.328 19.7384V172.622H358.672V19.5747C356.263 19.0884 354.129 17.7058 352.7 15.7062C351.271 13.7067 350.654 11.2392 350.973 8.80212C351.292 6.36508 352.525 4.14015 354.421 2.57671C356.317 1.01328 358.736 0.227898 361.188 0.379181C363.641 0.530464 365.945 1.60713 367.635 3.39174C369.324 5.17635 370.274 7.5359 370.292 9.99374C370.309 12.4516 369.394 14.8246 367.73 16.6334C366.066 18.4421 363.778 19.5518 361.328 19.7384V19.7384ZM360.597 3.03578C359.205 3.03578 357.844 3.44869 356.687 4.22232C355.53 4.99595 354.627 6.09552 354.095 7.38199C353.562 8.66846 353.423 10.084 353.695 11.4496C353.966 12.8153 354.637 14.0697 355.622 15.0541C356.606 16.0385 357.86 16.7088 359.226 16.9802C360.591 17.2516 362.006 17.1118 363.292 16.5787C364.578 16.0455 365.677 15.1429 366.45 13.985C367.224 12.827 367.636 11.4657 367.636 10.0733C367.634 8.20545 366.89 6.41479 365.569 5.09507C364.247 3.77534 362.456 3.03461 360.589 3.03578H360.597Z" fill="#FF7A00"/>
<path d="M488.501 102.694C486.265 102.69 484.099 101.916 482.368 100.5C480.636 99.0843 479.447 97.1147 478.999 94.9234H467.121V114.471L431.266 150.333V183.236H428.611V149.227L464.465 113.364V92.2669H478.836C478.978 90.3862 479.666 88.5879 480.815 87.0924C481.964 85.5969 483.525 84.4692 485.305 83.8474C487.085 83.2257 489.008 83.1369 490.838 83.592C492.668 84.0471 494.326 85.0262 495.608 86.4095C496.889 87.7927 497.74 89.52 498.055 91.3796C498.37 93.2392 498.136 95.1503 497.382 96.8788C496.627 98.6073 495.385 100.078 493.807 101.111C492.229 102.144 490.384 102.694 488.499 102.694H488.501ZM488.501 85.9599C487.109 85.9595 485.748 86.372 484.59 87.1453C483.432 87.9187 482.53 89.0182 481.997 90.3046C481.464 91.591 481.324 93.0067 481.596 94.3725C481.867 95.7382 482.538 96.9928 483.522 97.9775C484.506 98.9621 485.761 99.6326 487.126 99.9041C488.492 100.176 489.907 100.036 491.193 99.5031C492.479 98.97 493.578 98.0673 494.352 96.9093C495.125 95.7513 495.537 94.3899 495.537 92.9974C495.534 91.1317 494.792 89.343 493.473 88.0237C492.155 86.7044 490.366 85.9622 488.501 85.9599V85.9599Z" fill="#FF7A00"/>
<path d="M663.517 174.366C661.177 174.363 658.917 173.515 657.154 171.977C655.39 170.439 654.241 168.316 653.918 165.998H612.174C611.838 168.431 610.591 170.645 608.685 172.194C606.78 173.742 604.357 174.51 601.908 174.341C599.459 174.172 597.165 173.08 595.489 171.285C593.814 169.49 592.882 167.126 592.882 164.67C592.882 162.214 593.814 159.85 595.489 158.055C597.165 156.26 599.459 155.168 601.908 154.999C604.357 154.83 606.78 155.598 608.685 157.146C610.591 158.695 611.838 160.909 612.174 163.342H653.918C654.173 161.499 654.953 159.768 656.165 158.357C657.377 156.945 658.969 155.912 660.752 155.381C662.535 154.85 664.433 154.844 666.219 155.362C668.006 155.881 669.605 156.903 670.827 158.306C672.048 159.709 672.84 161.434 673.109 163.275C673.377 165.116 673.109 166.996 672.339 168.689C671.568 170.382 670.326 171.818 668.762 172.825C667.198 173.831 665.377 174.366 663.517 174.366ZM602.571 157.641C601.179 157.641 599.817 158.053 598.66 158.827C597.502 159.6 596.599 160.7 596.067 161.986C595.534 163.273 595.394 164.688 595.666 166.054C595.937 167.42 596.607 168.674 597.592 169.659C598.576 170.644 599.831 171.314 601.196 171.586C602.561 171.857 603.977 171.718 605.263 171.184C606.549 170.651 607.648 169.749 608.421 168.591C609.195 167.433 609.607 166.071 609.607 164.679C609.604 162.813 608.862 161.024 607.543 159.705C606.224 158.386 604.436 157.644 602.571 157.641ZM663.512 157.641C662.12 157.641 660.759 158.053 659.601 158.827C658.444 159.6 657.541 160.7 657.008 161.986C656.475 163.273 656.336 164.688 656.607 166.054C656.879 167.42 657.549 168.674 658.533 169.659C659.518 170.644 660.772 171.314 662.138 171.586C663.503 171.857 664.918 171.718 666.205 171.184C667.491 170.651 668.59 169.749 669.363 168.591C670.136 167.433 670.549 166.071 670.548 164.679C670.546 162.814 669.805 161.025 668.487 159.706C667.169 158.387 665.382 157.644 663.517 157.641H663.512Z" fill="#FF7A00"/>
<path d="M595.449 449.367C595.447 447.275 596.12 445.237 597.37 443.559C598.62 441.88 600.378 440.651 602.383 440.053C604.388 439.456 606.533 439.522 608.497 440.243C610.461 440.964 612.14 442.3 613.283 444.053C614.426 445.806 614.972 447.881 614.84 449.969C614.708 452.058 613.904 454.048 612.549 455.643C611.194 457.237 609.361 458.351 607.321 458.818C605.282 459.286 603.146 459.081 601.232 458.236L582.564 487.149H508.995L469.777 447.917L469.389 447.528V417.091H472.045V446.428L510.102 484.493H581.123L598.979 456.841C597.876 455.933 596.987 454.792 596.377 453.5C595.766 452.208 595.449 450.796 595.449 449.367V449.367ZM612.177 449.367C612.176 447.976 611.763 446.615 610.99 445.458C610.216 444.301 609.117 443.399 607.832 442.867C606.546 442.335 605.131 442.196 603.767 442.468C602.402 442.739 601.149 443.41 600.165 444.394C599.181 445.378 598.511 446.632 598.24 447.997C597.969 449.363 598.108 450.777 598.641 452.063C599.173 453.349 600.075 454.448 601.232 455.221C602.389 455.994 603.749 456.407 605.141 456.407C607.007 456.405 608.796 455.663 610.115 454.343C611.434 453.023 612.175 451.234 612.177 449.367V449.367Z" fill="#FF7A00"/>
<path d="M188.042 410.132C188.043 412.02 187.493 413.867 186.46 415.446C185.426 417.026 183.954 418.269 182.224 419.024C180.494 419.779 178.582 420.012 176.721 419.696C174.861 419.379 173.133 418.526 171.75 417.241C170.368 415.956 169.39 414.295 168.937 412.463C168.484 410.63 168.576 408.705 169.202 406.924C169.827 405.143 170.959 403.583 172.457 402.436C173.956 401.289 175.758 400.604 177.64 400.466V381.729H246.483V384.386H180.298V400.635C182.483 401.087 184.446 402.278 185.857 404.007C187.267 405.737 188.039 407.9 188.042 410.132V410.132ZM171.312 410.132C171.312 411.524 171.724 412.886 172.497 414.044C173.271 415.202 174.37 416.104 175.656 416.637C176.942 417.17 178.357 417.31 179.723 417.038C181.088 416.767 182.343 416.096 183.327 415.112C184.311 414.127 184.982 412.873 185.253 411.507C185.525 410.141 185.385 408.725 184.852 407.439C184.319 406.153 183.417 405.053 182.259 404.28C181.101 403.506 179.74 403.094 178.348 403.094C176.483 403.097 174.694 403.839 173.375 405.158C172.057 406.477 171.314 408.266 171.312 410.132Z" fill="#FF7A00"/>
<path d="M135.819 360.214C138.016 360.213 140.126 361.078 141.688 362.623L149.01 355.3H236.194V357.956H150.099L143.264 364.792C143.757 365.774 144.052 366.844 144.131 367.939C144.211 369.035 144.074 370.136 143.728 371.179C143.383 372.222 142.835 373.186 142.117 374.017C141.398 374.848 140.523 375.53 139.542 376.023C138.56 376.516 137.491 376.81 136.395 376.89C135.3 376.97 134.199 376.833 133.157 376.487C132.114 376.141 131.15 375.593 130.319 374.875C129.488 374.156 128.807 373.281 128.314 372.299H59.3713C59.0349 374.732 57.788 376.946 55.8824 378.495C53.9769 380.043 51.5548 380.811 49.1054 380.642C46.6559 380.473 44.3618 379.381 42.6864 377.586C41.0109 375.791 40.0791 373.427 40.0791 370.971C40.0791 368.515 41.0109 366.151 42.6864 364.356C44.3618 362.561 46.6559 361.469 49.1054 361.3C51.5548 361.131 53.9769 361.899 55.8824 363.447C57.788 364.996 59.0349 367.21 59.3713 369.643H127.513C127.358 368.464 127.457 367.265 127.804 366.127C128.15 364.989 128.736 363.939 129.521 363.046C130.307 362.153 131.274 361.439 132.358 360.95C133.443 360.462 134.619 360.211 135.808 360.214H135.819ZM49.7813 363.934C48.3892 363.934 47.0284 364.346 45.8709 365.12C44.7135 365.894 43.8114 366.993 43.2787 368.28C42.7461 369.566 42.6069 370.982 42.8786 372.348C43.1504 373.713 43.8208 374.967 44.8054 375.952C45.7899 376.936 47.0442 377.607 48.4096 377.878C49.775 378.149 51.1902 378.01 52.4762 377.477C53.7622 376.943 54.8613 376.041 55.6344 374.883C56.4075 373.725 56.8198 372.363 56.8194 370.971C56.8176 369.105 56.0755 367.315 54.7559 365.996C53.4363 364.676 51.6472 363.935 49.7813 363.934V363.934Z" fill="#FF7A00"/>
<path d="M257.841 183.406C255.962 183.407 254.138 182.775 252.662 181.612C251.187 180.45 250.145 178.825 249.705 176.998C249.265 175.171 249.453 173.25 250.237 171.543C251.022 169.835 252.358 168.442 254.031 167.587C255.704 166.732 257.615 166.465 259.458 166.829C261.301 167.192 262.968 168.166 264.191 169.593C265.413 171.019 266.12 172.816 266.197 174.693C266.275 176.57 265.718 178.419 264.618 179.942L270.622 185.948C272.388 184.804 274.52 184.367 276.594 184.725C278.667 185.083 280.529 186.209 281.81 187.879C283.091 189.549 283.695 191.639 283.504 193.735C283.313 195.831 282.339 197.777 280.777 199.187C279.215 200.597 277.179 201.367 275.076 201.343C272.972 201.319 270.954 200.504 269.425 199.059C267.895 197.614 266.966 195.646 266.822 193.546C266.678 191.447 267.33 189.37 268.648 187.73L262.739 181.819C261.315 182.853 259.6 183.409 257.841 183.406V183.406Z" fill="#FF7A00"/>
<path d="M405.997 148.534C407.61 148.531 409.189 148.998 410.541 149.878L427.373 133.053V113.225C424.964 112.738 422.83 111.356 421.402 109.357C419.973 107.358 419.356 104.891 419.676 102.454C419.995 100.018 421.227 97.7937 423.123 96.2306C425.019 94.6676 427.437 93.8824 429.889 94.0336C432.341 94.1849 434.644 95.2612 436.334 97.0454C438.023 98.8296 438.972 101.189 438.99 103.646C439.008 106.103 438.092 108.476 436.429 110.284C434.766 112.092 432.478 113.202 430.029 113.388V134.153L412.515 151.662C413.703 153.14 414.353 154.979 414.359 156.875C414.365 158.772 413.727 160.614 412.548 162.1C411.37 163.586 409.722 164.628 407.874 165.054C406.027 165.48 404.089 165.265 402.379 164.445C400.669 163.625 399.289 162.249 398.464 160.541C397.639 158.833 397.419 156.896 397.84 155.046C398.26 153.197 399.297 151.546 400.779 150.363C402.261 149.18 404.101 148.536 405.997 148.536V148.534ZM436.334 103.712C436.334 102.32 435.921 100.96 435.148 99.8023C434.375 98.645 433.276 97.743 431.991 97.2104C430.705 96.6777 429.29 96.5383 427.925 96.8099C426.561 97.0814 425.307 97.7517 424.323 98.7359C423.339 99.7201 422.669 100.974 422.397 102.339C422.126 103.704 422.265 105.119 422.798 106.405C423.33 107.691 424.232 108.79 425.389 109.564C426.546 110.337 427.907 110.75 429.298 110.75C431.164 110.748 432.952 110.006 434.271 108.686C435.59 107.367 436.332 105.578 436.334 103.712V103.712Z" fill="#FF7A00"/>
</g>
</svg>
