<svg width="24" height="25" viewBox="0 0 24 25" fill="none" xmlns="http://www.w3.org/2000/svg">
<path d="M4 4.00162V20.0016H20V4.00162H4ZM17.2927 7.79295L16.4333 8.61495C16.3971 8.64264 16.3691 8.67967 16.3523 8.72207C16.3355 8.76446 16.3306 8.81063 16.338 8.85562V14.901C16.3306 14.9459 16.3355 14.9921 16.3523 15.0345C16.3691 15.0769 16.3971 15.1139 16.4333 15.1416L17.2713 15.9643V16.1443H13.056V15.9643L13.9247 15.1216C14.01 15.0363 14.01 15.0109 14.01 14.8816V9.99495L11.5967 16.1256H11.27L8.46 9.99495V14.1036C8.44844 14.1888 8.45641 14.2755 8.48333 14.3572C8.51024 14.4389 8.55538 14.5133 8.61533 14.575L9.74467 15.945V16.1249H6.54333V15.945L7.67333 14.575C7.7328 14.5133 7.77693 14.4385 7.80218 14.3566C7.82742 14.2747 7.83307 14.1881 7.81867 14.1036V9.35228C7.82527 9.28731 7.81645 9.22169 7.79294 9.16077C7.76942 9.09984 7.73187 9.04531 7.68333 9.00162L6.67933 7.79295V7.61228H9.79533L12.204 12.8943L14.3213 7.61162H17.292L17.2927 7.79295Z" fill="white"/>
</svg>
