<svg width="24" height="24" viewBox="0 0 24 24" fill="none" xmlns="http://www.w3.org/2000/svg">
<path d="M4 4V20H20V4H4ZM17.2927 7.79133L16.4333 8.61333C16.3971 8.64103 16.3691 8.67805 16.3523 8.72045C16.3355 8.76284 16.3306 8.80901 16.338 8.854V14.8993C16.3306 14.9443 16.3355 14.9905 16.3523 15.0329C16.3691 15.0753 16.3971 15.1123 16.4333 15.14L17.2713 15.9627V16.1427H13.056V15.9627L13.9247 15.12C14.01 15.0347 14.01 15.0093 14.01 14.88V9.99333L11.5967 16.124H11.27L8.46 9.99333V14.102C8.44844 14.1872 8.45641 14.2739 8.48333 14.3556C8.51024 14.4372 8.55538 14.5117 8.61533 14.5733L9.74467 15.9433V16.1233H6.54333V15.9433L7.67333 14.5733C7.7328 14.5117 7.77693 14.4369 7.80218 14.355C7.82742 14.2731 7.83307 14.1865 7.81867 14.102V9.35067C7.82527 9.28569 7.81645 9.22008 7.79294 9.15915C7.76942 9.09822 7.73187 9.04369 7.68333 9L6.67933 7.79133V7.61067H9.79533L12.204 12.8927L14.3213 7.61H17.292L17.2927 7.79133Z" fill="white"/>
</svg>
