<svg width="24" height="25" viewBox="0 0 24 25" fill="none" xmlns="http://www.w3.org/2000/svg">
<path d="M8.94 18.7066C10.2069 18.7146 11.4627 18.4709 12.6346 17.9898C13.8066 17.5087 14.8714 16.7996 15.7672 15.9038C16.663 15.008 17.3721 13.9432 17.8532 12.7713C18.3343 11.5993 18.578 10.3435 18.57 9.07662V8.63412C19.2267 8.15299 19.7951 7.56175 20.25 6.88662C19.6316 7.15707 18.9773 7.33643 18.3075 7.41912C19.0177 6.99596 19.5506 6.32987 19.8075 5.54412C19.1456 5.9412 18.4199 6.22035 17.6625 6.36912C17.1524 5.82565 16.4775 5.46541 15.7421 5.34416C15.0067 5.22291 14.2518 5.3474 13.5943 5.69836C12.9368 6.04933 12.4132 6.60721 12.1047 7.28568C11.7962 7.96415 11.7198 8.72539 11.8875 9.45162C10.542 9.38558 9.22553 9.03689 8.02377 8.42825C6.822 7.81961 5.7619 6.96468 4.9125 5.91912C4.48419 6.6625 4.35437 7.54086 4.54932 8.37636C4.74427 9.21186 5.24942 9.94206 5.9625 10.4191C5.43646 10.3988 4.92259 10.2549 4.4625 9.99912V10.0366C4.45783 10.8135 4.71954 11.5685 5.20403 12.1758C5.68851 12.7831 6.3665 13.2061 7.125 13.3741C6.63573 13.5057 6.12322 13.5262 5.625 13.4341C5.84459 14.0967 6.26376 14.675 6.82503 15.09C7.38631 15.5049 8.06219 15.736 8.76 15.7516C7.56691 16.712 6.08407 17.2407 4.5525 17.2516C4.28397 17.2438 4.01606 17.2213 3.75 17.1841C5.30022 18.1718 7.1019 18.6925 8.94 18.6841" fill="white"/>
</svg>
