<svg width="24" height="25" viewBox="0 0 24 25" fill="none" xmlns="http://www.w3.org/2000/svg">
<path d="M19.2701 5.33162C17.9401 4.71162 16.5001 4.26162 15.0001 4.00162C14.987 4.0012 14.9739 4.00367 14.9618 4.00885C14.9497 4.01403 14.9389 4.0218 14.9301 4.03162C14.7501 4.36162 14.5401 4.79162 14.4001 5.12162C12.8091 4.88162 11.1911 4.88162 9.60012 5.12162C9.46012 4.78162 9.25012 4.36162 9.06012 4.03162C9.05012 4.01162 9.02012 4.00162 8.99012 4.00162C7.49012 4.26162 6.06012 4.71162 4.72012 5.33162C4.71012 5.33162 4.70012 5.34162 4.69012 5.35162C1.97012 9.42162 1.22012 13.3816 1.59012 17.3016C1.59012 17.3216 1.60012 17.3416 1.62012 17.3516C3.42012 18.6716 5.15012 19.4716 6.86012 20.0016C6.89012 20.0116 6.92012 20.0016 6.93012 19.9816C7.33012 19.4316 7.69012 18.8516 8.00012 18.2416C8.02012 18.2016 8.00012 18.1616 7.96012 18.1516C7.39012 17.9316 6.85012 17.6716 6.32012 17.3716C6.28012 17.3516 6.28012 17.2916 6.31012 17.2616C6.42012 17.1816 6.53012 17.0916 6.64012 17.0116C6.66012 16.9916 6.69012 16.9916 6.71012 17.0016C10.1501 18.5716 13.8601 18.5716 17.2601 17.0016C17.2801 16.9916 17.3101 16.9916 17.3301 17.0116C17.4401 17.1016 17.5501 17.1816 17.6601 17.2716C17.7001 17.3016 17.7001 17.3616 17.6501 17.3816C17.1301 17.6916 16.5801 17.9416 16.0101 18.1616C15.9701 18.1716 15.9601 18.2216 15.9701 18.2516C16.2901 18.8616 16.6501 19.4416 17.0401 19.9916C17.0701 20.0016 17.1001 20.0116 17.1301 20.0016C18.8501 19.4716 20.5801 18.6716 22.3801 17.3516C22.4001 17.3416 22.4101 17.3216 22.4101 17.3016C22.8501 12.7716 21.6801 8.84162 19.3101 5.35162C19.3001 5.34162 19.2901 5.33162 19.2701 5.33162V5.33162ZM8.52012 14.9116C7.49012 14.9116 6.63012 13.9616 6.63012 12.7916C6.63012 11.6216 7.47012 10.6716 8.52012 10.6716C9.58012 10.6716 10.4201 11.6316 10.4101 12.7916C10.4101 13.9616 9.57012 14.9116 8.52012 14.9116ZM15.4901 14.9116C14.4601 14.9116 13.6001 13.9616 13.6001 12.7916C13.6001 11.6216 14.4401 10.6716 15.4901 10.6716C16.5501 10.6716 17.3901 11.6316 17.3801 12.7916C17.3801 13.9616 16.5501 14.9116 15.4901 14.9116Z" fill="white"/>
</svg>
