<svg width="31" height="24" viewBox="0 0 31 24" fill="none" xmlns="http://www.w3.org/2000/svg">
<path fill-rule="evenodd" clip-rule="evenodd" d="M29.8068 0.0246283C30.0282 -0.0686734 30.2181 0.11793 30.1865 0.335634L25.1882 23.7878C25.1767 23.8328 25.1543 23.8742 25.123 23.9085C25.0916 23.9427 25.0523 23.9687 25.0085 23.9841C24.9647 23.9995 24.9177 24.0038 24.8718 23.9967C24.826 23.9895 24.7825 23.9712 24.7455 23.9432L16.8685 18.3445L12.4713 22.5126C12.434 22.542 12.3903 22.5623 12.3438 22.572C12.2973 22.5817 12.2491 22.5804 12.2032 22.5684C12.1572 22.5563 12.1146 22.5338 12.0788 22.5025C12.043 22.4713 12.015 22.4322 11.9968 22.3882L8.99136 13.6479L0.766393 11.1286C0.710973 11.11 0.662796 11.0744 0.628665 11.027C0.594534 10.9795 0.576172 10.9225 0.576172 10.864C0.576172 10.8056 0.594534 10.7486 0.628665 10.7011C0.662796 10.6537 0.710973 10.6181 0.766393 10.5995C15.9193 5.03206 27.371 0.895203 29.8069 0.0243078L29.8068 0.0246283ZM24.5555 4.2858C24.5242 4.28156 19.8423 7.2095 10.5414 13.0259L12.5028 19.3711L12.9144 15.3585C20.9176 8.23581 24.9245 4.65896 24.9351 4.62791C25.125 4.44123 24.6821 4.3028 24.5555 4.2858V4.2858Z" fill="#F0F2F4"/>
</svg>
