<svg width="37" height="24" viewBox="0 0 37 24" fill="none" xmlns="http://www.w3.org/2000/svg">
<path d="M32.0717 3.02813C28.0401 0.135274 24.2836 0.0150101 23.5659 0L23.1078 0.434748C28.254 1.87381 30.7431 4.12242 30.7431 4.12242C26.3259 1.98907 22.1633 1.23884 18.557 1.19371C14.9509 1.2392 10.7881 1.98907 6.37099 4.12242C6.37099 4.12242 8.86012 1.87381 14.0064 0.434748L13.5482 0C12.8305 0.0150101 9.0739 0.13491 5.04245 3.02813C5.04245 3.02813 0.537598 10.5834 0.537598 19.8626C0.690246 19.6827 3.33212 23.8501 10.1429 24C10.1429 24 11.2882 22.7258 12.1128 21.6015C8.14236 20.4772 6.6459 18.2287 6.6459 18.2287C10.7736 20.781 14.629 21.763 18.557 21.6354C22.485 21.7628 26.3404 20.781 30.4681 18.2287C30.4681 18.2287 28.9717 20.4772 25.0008 21.6015C25.8255 22.7258 26.9708 24 26.9708 24C33.7815 23.8501 36.4233 19.6827 36.576 19.8626C36.5764 10.5834 32.0717 3.02813 32.0717 3.02813V3.02813ZM13.0134 16.9544C11.2725 16.9544 9.86762 15.5153 9.86762 13.7464C9.86762 11.9774 11.2725 10.5384 13.0134 10.5384V10.5534C14.739 10.5534 16.1591 11.9925 16.1591 13.7614C16.1595 15.5153 14.7545 16.9544 13.0137 16.9544H13.0134ZM24.0999 16.9544C22.359 16.9544 20.9542 15.5153 20.9542 13.7614C20.9542 11.9925 22.3743 10.5534 24.0999 10.5534V10.5384C25.8408 10.5384 27.2457 11.9775 27.2457 13.7464C27.2457 15.5152 25.8412 16.9544 24.1003 16.9544H24.0999Z" fill="#F0F2F4"/>
</svg>
