<svg width="37" height="24" viewBox="0 0 37 24" fill="none" xmlns="http://www.w3.org/2000/svg">
<path d="M32.0712 3.02813C28.0397 0.135274 24.2831 0.0150101 23.5655 0L23.1073 0.434748C28.2535 1.87381 30.7427 4.12242 30.7427 4.12242C26.3254 1.98907 22.1628 1.23884 18.5565 1.19371C14.9504 1.2392 10.7877 1.98907 6.3705 4.12242C6.3705 4.12242 8.85963 1.87381 14.0059 0.434748L13.5477 0C12.83 0.0150101 9.07341 0.13491 5.04197 3.02813C5.04197 3.02813 0.537109 10.5834 0.537109 19.8626C0.689758 19.6827 3.33163 23.8501 10.1424 24C10.1424 24 11.2877 22.7258 12.1123 21.6015C8.14187 20.4772 6.64541 18.2287 6.64541 18.2287C10.7731 20.781 14.6285 21.763 18.5565 21.6354C22.4845 21.7628 26.34 20.781 30.4677 18.2287C30.4677 18.2287 28.9712 20.4772 25.0003 21.6015C25.825 22.7258 26.9703 24 26.9703 24C33.781 23.8501 36.4229 19.6827 36.5755 19.8626C36.576 10.5834 32.0712 3.02813 32.0712 3.02813V3.02813ZM13.0129 16.9544C11.272 16.9544 9.86713 15.5153 9.86713 13.7464C9.86713 11.9774 11.272 10.5384 13.0129 10.5384V10.5534C14.7385 10.5534 16.1586 11.9925 16.1586 13.7614C16.159 15.5153 14.754 16.9544 13.0132 16.9544H13.0129ZM24.0994 16.9544C22.3585 16.9544 20.9537 15.5153 20.9537 13.7614C20.9537 11.9925 22.3738 10.5534 24.0994 10.5534V10.5384C25.8404 10.5384 27.2452 11.9775 27.2452 13.7464C27.2452 15.5152 25.8407 16.9544 24.0998 16.9544H24.0994Z" fill="#F0F2F4"/>
</svg>
