<svg width="32" height="24" viewBox="0 0 32 24" fill="none" xmlns="http://www.w3.org/2000/svg">
<path fill-rule="evenodd" clip-rule="evenodd" d="M26.7235 1.90795C25.5967 0.702894 23.958 0 22.1143 0C18.0497 0 15.1692 3.61282 15.9689 7.53155C10.7456 7.23031 6.03393 4.8202 2.96151 1.20505C2.42916 2.12012 2.14658 3.15899 2.14208 4.21763C2.14208 6.32641 3.26875 8.23453 4.90752 9.23866C3.89648 9.2353 2.90529 8.95767 2.0396 8.43536C2.02043 11.3623 4.16781 13.9545 7.05839 14.4606C6.14169 14.6404 5.11462 14.7875 4.19057 14.561C4.62201 15.7927 5.42528 16.8601 6.48943 17.6156C7.55358 18.3711 8.82609 18.7776 10.1312 18.7787C7.61815 20.6559 3.96582 21.9082 0.810547 21.2892C6.96076 25.0861 15.3665 24.9204 21.2298 20.6278C25.9574 17.1668 28.3624 11.6917 28.3624 5.92475C29.5659 5.04622 30.6354 3.99762 31.5376 2.81176C30.4108 3.31391 29.1818 3.61515 27.9528 3.81598C29.1818 3.01258 30.2061 1.90803 30.7182 0.401654C30.7179 0.401654 28.1573 1.6067 26.7235 1.90795V1.90795Z" fill="#F0F2F4"/>
</svg>
