<svg width="31" height="24" viewBox="0 0 31 24" fill="none" xmlns="http://www.w3.org/2000/svg">
<path fill-rule="evenodd" clip-rule="evenodd" d="M29.8066 0.0246283C30.028 -0.0686734 30.2179 0.11793 30.1862 0.335634L25.1879 23.7878C25.1765 23.8328 25.1541 23.8742 25.1227 23.9085C25.0914 23.9427 25.052 23.9687 25.0082 23.9841C24.9644 23.9995 24.9175 24.0038 24.8716 23.9967C24.8257 23.9895 24.7823 23.9712 24.7452 23.9432L16.8683 18.3445L12.4711 22.5126C12.4337 22.542 12.3901 22.5623 12.3435 22.572C12.297 22.5817 12.2489 22.5804 12.2029 22.5684C12.157 22.5563 12.1144 22.5338 12.0786 22.5025C12.0428 22.4713 12.0147 22.4322 11.9966 22.3882L8.99112 13.6479L0.766149 11.1286C0.710729 11.11 0.662552 11.0744 0.628421 11.027C0.59429 10.9795 0.575928 10.9225 0.575928 10.864C0.575928 10.8056 0.59429 10.7486 0.628421 10.7011C0.662552 10.6537 0.710729 10.6181 0.766149 10.5995C15.9191 5.03206 27.3707 0.895203 29.8067 0.0243078L29.8066 0.0246283ZM24.5553 4.2858C24.5239 4.28156 19.8421 7.2095 10.5412 13.0259L12.5026 19.3711L12.9142 15.3585C20.9174 8.23581 24.9243 4.65896 24.9349 4.62791C25.1248 4.44123 24.6819 4.3028 24.5553 4.2858V4.2858Z" fill="#F0F2F4"/>
</svg>
